<?xml version="1.0" encoding="UTF-8" standalone="yes"?><svg xmlns="http://www.w3.org/2000/svg" xmlns:xlink="http://www.w3.org/1999/xlink" height="858px" style="width:1232px;height:858px;" version="1.1" viewBox="0 0 1232 858" width="1232px"><defs/><g><text fill="#000000" font-family="Lucida Sans" font-size="14" font-weight="bold" lengthAdjust="spacingAndGlyphs" textLength="258" x="491.75" y="22.9951">Bitcoin Payment Protocol (BIP70)</text><rect fill="#FFFFFF" height="46.2656" style="stroke: #000000; stroke-width: 2.0;" width="522" x="168" y="718.9844"/><line style="stroke: #A80036; stroke-width: 1.0; stroke-dasharray: 5.0,5.0;" x1="70" x2="70" y1="112.5938" y2="782.25"/><line style="stroke: #A80036; stroke-width: 1.0; stroke-dasharray: 5.0,5.0;" x1="236" x2="236" y1="112.5938" y2="782.25"/><line style="stroke: #A80036; stroke-width: 1.0; stroke-dasharray: 5.0,5.0;" x1="623" x2="623" y1="112.5938" y2="782.25"/><line style="stroke: #A80036; stroke-width: 1.0; stroke-dasharray: 5.0,5.0;" x1="738" x2="738" y1="112.5938" y2="782.25"/><line style="stroke: #A80036; stroke-width: 1.0; stroke-dasharray: 5.0,5.0;" x1="1107" x2="1107" y1="112.5938" y2="782.25"/><text fill="#000000" font-family="Lucida Sans" font-size="14" lengthAdjust="spacingAndGlyphs" textLength="118" x="8" y="109.292">Invoice Database</text><path d="M52,64.2969 C52,54.2969 70,54.2969 70,54.2969 C70,54.2969 88,54.2969 88,64.2969 L88,86.2969 C88,96.2969 70,96.2969 70,96.2969 C70,96.2969 52,96.2969 52,86.2969 L52,64.2969 " fill="#FEFECE" style="stroke: #A80036; stroke-width: 1.5;"/><path d="M52,64.2969 C52,74.2969 70,74.2969 70,74.2969 C70,74.2969 88,74.2969 88,64.2969 " fill="none" style="stroke: #A80036; stroke-width: 1.5;"/><text fill="#000000" font-family="Lucida Sans" font-size="14" lengthAdjust="spacingAndGlyphs" textLength="118" x="8" y="794.2451">Invoice Database</text><path d="M52,807.5469 C52,797.5469 70,797.5469 70,797.5469 C70,797.5469 88,797.5469 88,807.5469 L88,829.5469 C88,839.5469 70,839.5469 70,839.5469 C70,839.5469 52,839.5469 52,829.5469 L52,807.5469 " fill="#FEFECE" style="stroke: #A80036; stroke-width: 1.5;"/><path d="M52,807.5469 C52,817.5469 70,817.5469 70,817.5469 C70,817.5469 88,817.5469 88,807.5469 " fill="none" style="stroke: #A80036; stroke-width: 1.5;"/><rect fill="#FEFECE" height="30.2969" style="stroke: #A80036; stroke-width: 1.5;" width="116" x="178" y="81.2969"/><text fill="#000000" font-family="Lucida Sans" font-size="14" lengthAdjust="spacingAndGlyphs" textLength="102" x="185" y="101.292">Payee Website</text><rect fill="#FEFECE" height="30.2969" style="stroke: #A80036; stroke-width: 1.5;" width="116" x="178" y="781.25"/><text fill="#000000" font-family="Lucida Sans" font-size="14" lengthAdjust="spacingAndGlyphs" textLength="102" x="185" y="801.2451">Payee Website</text><text fill="#000000" font-family="Lucida Sans" font-size="14" lengthAdjust="spacingAndGlyphs" textLength="108" x="566" y="109.292">Bitcoin Network</text><path d="M605,64.2969 C605,54.2969 623,54.2969 623,54.2969 C623,54.2969 641,54.2969 641,64.2969 L641,86.2969 C641,96.2969 623,96.2969 623,96.2969 C623,96.2969 605,96.2969 605,86.2969 L605,64.2969 " fill="#FEFECE" style="stroke: #A80036; stroke-width: 1.5;"/><path d="M605,64.2969 C605,74.2969 623,74.2969 623,74.2969 C623,74.2969 641,74.2969 641,64.2969 " fill="none" style="stroke: #A80036; stroke-width: 1.5;"/><text fill="#000000" font-family="Lucida Sans" font-size="14" lengthAdjust="spacingAndGlyphs" textLength="108" x="566" y="794.2451">Bitcoin Network</text><path d="M605,807.5469 C605,797.5469 623,797.5469 623,797.5469 C623,797.5469 641,797.5469 641,807.5469 L641,829.5469 C641,839.5469 623,839.5469 623,839.5469 C623,839.5469 605,839.5469 605,829.5469 L605,807.5469 " fill="#FEFECE" style="stroke: #A80036; stroke-width: 1.5;"/><path d="M605,807.5469 C605,817.5469 623,817.5469 623,817.5469 C623,817.5469 641,817.5469 641,807.5469 " fill="none" style="stroke: #A80036; stroke-width: 1.5;"/><rect fill="#FEFECE" height="30.2969" style="stroke: #A80036; stroke-width: 1.5;" width="97" x="690" y="81.2969"/><text fill="#000000" font-family="Lucida Sans" font-size="14" lengthAdjust="spacingAndGlyphs" textLength="83" x="697" y="101.292">Payer Wallet</text><rect fill="#FEFECE" height="30.2969" style="stroke: #A80036; stroke-width: 1.5;" width="97" x="690" y="781.25"/><text fill="#000000" font-family="Lucida Sans" font-size="14" lengthAdjust="spacingAndGlyphs" textLength="83" x="697" y="801.2451">Payer Wallet</text><text fill="#000000" font-family="Lucida Sans" font-size="14" lengthAdjust="spacingAndGlyphs" textLength="109" x="1050" y="109.292">Payer (Browser)</text><ellipse cx="1107.5" cy="43.2969" fill="#FEFECE" rx="8" ry="8" style="stroke: #A80036; stroke-width: 2.0;"/><path d="M1107.5,51.2969 L1107.5,78.2969 M1094.5,59.2969 L1120.5,59.2969 M1107.5,78.2969 L1094.5,93.2969 M1107.5,78.2969 L1120.5,93.2969 " fill="#FEFECE" style="stroke: #A80036; stroke-width: 2.0;"/><text fill="#000000" font-family="Lucida Sans" font-size="14" lengthAdjust="spacingAndGlyphs" textLength="109" x="1050" y="794.2451">Payer (Browser)</text><ellipse cx="1107.5" cy="807.5469" fill="#FEFECE" rx="8" ry="8" style="stroke: #A80036; stroke-width: 2.0;"/><path d="M1107.5,815.5469 L1107.5,842.5469 M1094.5,823.5469 L1120.5,823.5469 M1107.5,842.5469 L1094.5,857.5469 M1107.5,842.5469 L1120.5,857.5469 " fill="#FEFECE" style="stroke: #A80036; stroke-width: 2.0;"/><polygon fill="#A80036" points="247,139.5938,237,143.5938,247,147.5938,243,143.5938" style="stroke: #A80036; stroke-width: 1.0;"/><line style="stroke: #A80036; stroke-width: 1.0;" x1="241" x2="1106.5" y1="143.5938" y2="143.5938"/><text fill="#000000" font-family="Lucida Sans" font-size="13" font-weight="bold" lengthAdjust="spacingAndGlyphs" textLength="9" x="253" y="138.6606">1</text><text fill="#000000" font-family="Lucida Sans" font-size="13" lengthAdjust="spacingAndGlyphs" textLength="190" x="266" y="138.6606">Request checkout with Bitcoin</text><line style="stroke: #A80036; stroke-width: 1.0;" x1="236" x2="278" y1="172.8594" y2="172.8594"/><line style="stroke: #A80036; stroke-width: 1.0;" x1="278" x2="278" y1="172.8594" y2="185.8594"/><line style="stroke: #A80036; stroke-width: 1.0;" x1="237" x2="278" y1="185.8594" y2="185.8594"/><polygon fill="#A80036" points="247,181.8594,237,185.8594,247,189.8594,243,185.8594" style="stroke: #A80036; stroke-width: 1.0;"/><text fill="#000000" font-family="Lucida Sans" font-size="13" font-weight="bold" lengthAdjust="spacingAndGlyphs" textLength="9" x="243" y="167.7935">2</text><text fill="#000000" font-family="Lucida Sans" font-size="13" lengthAdjust="spacingAndGlyphs" textLength="162" x="256" y="167.7935">Generate Bitcoin address</text><polygon fill="#A80036" points="81,210.8594,71,214.8594,81,218.8594,77,214.8594" style="stroke: #A80036; stroke-width: 1.0;"/><line style="stroke: #A80036; stroke-width: 1.0;" x1="75" x2="235" y1="214.8594" y2="214.8594"/><text fill="#000000" font-family="Lucida Sans" font-size="13" font-weight="bold" lengthAdjust="spacingAndGlyphs" textLength="9" x="87" y="209.9263">3</text><text fill="#000000" font-family="Lucida Sans" font-size="13" lengthAdjust="spacingAndGlyphs" textLength="129" x="100" y="209.9263">Store invoice details</text><polygon fill="#A80036" points="1095.5,239.9922,1105.5,243.9922,1095.5,247.9922,1099.5,243.9922" style="stroke: #A80036; stroke-width: 1.0;"/><line style="stroke: #A80036; stroke-width: 1.0;" x1="236" x2="1101.5" y1="243.9922" y2="243.9922"/><text fill="#000000" font-family="Lucida Sans" font-size="13" font-weight="bold" lengthAdjust="spacingAndGlyphs" textLength="9" x="243" y="239.0591">4</text><text fill="#000000" font-family="Lucida Sans" font-size="13" lengthAdjust="spacingAndGlyphs" textLength="211" x="256" y="239.0591">Basket Page with bitcoin: pay link</text><line style="stroke: #A80036; stroke-width: 1.0;" x1="1107.5" x2="1149.5" y1="273.2578" y2="273.2578"/><line style="stroke: #A80036; stroke-width: 1.0;" x1="1149.5" x2="1149.5" y1="273.2578" y2="286.2578"/><line style="stroke: #A80036; stroke-width: 1.0;" x1="1108.5" x2="1149.5" y1="286.2578" y2="286.2578"/><polygon fill="#A80036" points="1118.5,282.2578,1108.5,286.2578,1118.5,290.2578,1114.5,286.2578" style="stroke: #A80036; stroke-width: 1.0;"/><text fill="#000000" font-family="Lucida Sans" font-size="13" font-weight="bold" lengthAdjust="spacingAndGlyphs" textLength="9" x="1114.5" y="268.1919">5</text><text fill="#000000" font-family="Lucida Sans" font-size="13" lengthAdjust="spacingAndGlyphs" textLength="104" x="1127.5" y="268.1919">Click bitcoin: link</text><polygon fill="#A80036" points="749.5,311.2578,739.5,315.2578,749.5,319.2578,745.5,315.2578" style="stroke: #A80036; stroke-width: 1.0;"/><line style="stroke: #A80036; stroke-width: 1.0;" x1="743.5" x2="1106.5" y1="315.2578" y2="315.2578"/><text fill="#000000" font-family="Lucida Sans" font-size="13" font-weight="bold" lengthAdjust="spacingAndGlyphs" textLength="9" x="755.5" y="310.3247">6</text><text fill="#000000" font-family="Lucida Sans" font-size="13" lengthAdjust="spacingAndGlyphs" textLength="332" x="768.5" y="310.3247">Wallet handles bitcoin: URL and extracts invoice URL</text><polygon fill="#A80036" points="247,340.3906,237,344.3906,247,348.3906,243,344.3906" style="stroke: #A80036; stroke-width: 1.0;"/><line style="stroke: #A80036; stroke-width: 1.0;" x1="241" x2="737.5" y1="344.3906" y2="344.3906"/><text fill="#000000" font-family="Lucida Sans" font-size="13" font-weight="bold" lengthAdjust="spacingAndGlyphs" textLength="9" x="253" y="339.4575">7</text><text fill="#000000" font-family="Lucida Sans" font-size="13" lengthAdjust="spacingAndGlyphs" textLength="100" x="266" y="339.4575">Request invoice</text><polygon fill="#A80036" points="81,369.5234,71,373.5234,81,377.5234,77,373.5234" style="stroke: #A80036; stroke-width: 1.0;"/><line style="stroke: #A80036; stroke-width: 1.0;" x1="75" x2="235" y1="373.5234" y2="373.5234"/><text fill="#000000" font-family="Lucida Sans" font-size="13" font-weight="bold" lengthAdjust="spacingAndGlyphs" textLength="9" x="87" y="368.5903">8</text><text fill="#000000" font-family="Lucida Sans" font-size="13" lengthAdjust="spacingAndGlyphs" textLength="117" x="100" y="368.5903">Get invoice details</text><line style="stroke: #A80036; stroke-width: 1.0;" x1="236" x2="278" y1="402.7891" y2="402.7891"/><line style="stroke: #A80036; stroke-width: 1.0;" x1="278" x2="278" y1="402.7891" y2="415.7891"/><line style="stroke: #A80036; stroke-width: 1.0;" x1="237" x2="278" y1="415.7891" y2="415.7891"/><polygon fill="#A80036" points="247,411.7891,237,415.7891,247,419.7891,243,415.7891" style="stroke: #A80036; stroke-width: 1.0;"/><text fill="#000000" font-family="Lucida Sans" font-size="13" font-weight="bold" lengthAdjust="spacingAndGlyphs" textLength="9" x="243" y="397.7231">9</text><text fill="#000000" font-family="Lucida Sans" font-size="13" lengthAdjust="spacingAndGlyphs" textLength="360" x="256" y="397.7231">Create PaymentDetails (Amount, Memo, Ref#, Pay URL)</text><line style="stroke: #A80036; stroke-width: 1.0;" x1="236" x2="278" y1="444.9219" y2="444.9219"/><line style="stroke: #A80036; stroke-width: 1.0;" x1="278" x2="278" y1="444.9219" y2="457.9219"/><line style="stroke: #A80036; stroke-width: 1.0;" x1="237" x2="278" y1="457.9219" y2="457.9219"/><polygon fill="#A80036" points="247,453.9219,237,457.9219,247,461.9219,243,457.9219" style="stroke: #A80036; stroke-width: 1.0;"/><text fill="#000000" font-family="Lucida Sans" font-size="13" font-weight="bold" lengthAdjust="spacingAndGlyphs" textLength="18" x="243" y="439.856">10</text><text fill="#000000" font-family="Lucida Sans" font-size="13" lengthAdjust="spacingAndGlyphs" textLength="319" x="265" y="439.856">Create PaymentRequest (Signed PaymentDetails)</text><polygon fill="#A80036" points="726.5,482.9219,736.5,486.9219,726.5,490.9219,730.5,486.9219" style="stroke: #A80036; stroke-width: 1.0;"/><line style="stroke: #A80036; stroke-width: 1.0;" x1="236" x2="732.5" y1="486.9219" y2="486.9219"/><text fill="#000000" font-family="Lucida Sans" font-size="13" font-weight="bold" lengthAdjust="spacingAndGlyphs" textLength="18" x="243" y="481.9888">11</text><text fill="#000000" font-family="Lucida Sans" font-size="13" lengthAdjust="spacingAndGlyphs" textLength="284" x="265" y="481.9888">PaymentRequest containing PaymentDetails</text><polygon fill="#A80036" points="1095.5,512.0547,1105.5,516.0547,1095.5,520.0547,1099.5,516.0547" style="stroke: #A80036; stroke-width: 1.0;"/><line style="stroke: #A80036; stroke-width: 1.0;" x1="738.5" x2="1101.5" y1="516.0547" y2="516.0547"/><text fill="#000000" font-family="Lucida Sans" font-size="13" font-weight="bold" lengthAdjust="spacingAndGlyphs" textLength="18" x="745.5" y="511.1216">12</text><text fill="#000000" font-family="Lucida Sans" font-size="13" lengthAdjust="spacingAndGlyphs" textLength="164" x="767.5" y="511.1216">Confirm payment details?</text><polygon fill="#A80036" points="749.5,541.1875,739.5,545.1875,749.5,549.1875,745.5,545.1875" style="stroke: #A80036; stroke-width: 1.0;"/><line style="stroke: #A80036; stroke-width: 1.0;" x1="743.5" x2="1106.5" y1="545.1875" y2="545.1875"/><text fill="#000000" font-family="Lucida Sans" font-size="13" font-weight="bold" lengthAdjust="spacingAndGlyphs" textLength="18" x="755.5" y="540.2544">13</text><text fill="#000000" font-family="Lucida Sans" font-size="13" lengthAdjust="spacingAndGlyphs" textLength="105" x="777.5" y="540.2544">Accept payment</text><line style="stroke: #A80036; stroke-width: 1.0;" x1="738.5" x2="780.5" y1="574.4531" y2="574.4531"/><line style="stroke: #A80036; stroke-width: 1.0;" x1="780.5" x2="780.5" y1="574.4531" y2="587.4531"/><line style="stroke: #A80036; stroke-width: 1.0;" x1="739.5" x2="780.5" y1="587.4531" y2="587.4531"/><polygon fill="#A80036" points="749.5,583.4531,739.5,587.4531,749.5,591.4531,745.5,587.4531" style="stroke: #A80036; stroke-width: 1.0;"/><text fill="#000000" font-family="Lucida Sans" font-size="13" font-weight="bold" lengthAdjust="spacingAndGlyphs" textLength="18" x="745.5" y="569.3872">14</text><text fill="#000000" font-family="Lucida Sans" font-size="13" lengthAdjust="spacingAndGlyphs" textLength="179" x="767.5" y="569.3872">Generate and sign payment</text><polygon fill="#A80036" points="247,612.4531,237,616.4531,247,620.4531,243,616.4531" style="stroke: #A80036; stroke-width: 1.0;"/><line style="stroke: #A80036; stroke-width: 1.0;" x1="241" x2="737.5" y1="616.4531" y2="616.4531"/><text fill="#000000" font-family="Lucida Sans" font-size="13" font-weight="bold" lengthAdjust="spacingAndGlyphs" textLength="18" x="253" y="611.52">15</text><text fill="#000000" font-family="Lucida Sans" font-size="13" lengthAdjust="spacingAndGlyphs" textLength="105" x="275" y="611.52">Signed payment</text><polygon fill="#A80036" points="611,641.5859,621,645.5859,611,649.5859,615,645.5859" style="stroke: #A80036; stroke-width: 1.0;"/><line style="stroke: #A80036; stroke-width: 1.0;" x1="236" x2="617" y1="645.5859" y2="645.5859"/><text fill="#000000" font-family="Lucida Sans" font-size="13" font-weight="bold" lengthAdjust="spacingAndGlyphs" textLength="18" x="243" y="640.6528">16</text><text fill="#000000" font-family="Lucida Sans" font-size="13" lengthAdjust="spacingAndGlyphs" textLength="107" x="265" y="640.6528">Submit payment</text><polygon fill="#A80036" points="726.5,670.7188,736.5,674.7188,726.5,678.7188,730.5,674.7188" style="stroke: #A80036; stroke-width: 1.0;"/><line style="stroke: #A80036; stroke-width: 1.0;" x1="236" x2="732.5" y1="674.7188" y2="674.7188"/><text fill="#000000" font-family="Lucida Sans" font-size="13" font-weight="bold" lengthAdjust="spacingAndGlyphs" textLength="18" x="243" y="669.7856">17</text><text fill="#000000" font-family="Lucida Sans" font-size="13" lengthAdjust="spacingAndGlyphs" textLength="87" x="265" y="669.7856">Payment ACK</text><polygon fill="#A80036" points="1095.5,699.8516,1105.5,703.8516,1095.5,707.8516,1099.5,703.8516" style="stroke: #A80036; stroke-width: 1.0;"/><line style="stroke: #A80036; stroke-width: 1.0;" x1="738.5" x2="1101.5" y1="703.8516" y2="703.8516"/><text fill="#000000" font-family="Lucida Sans" font-size="13" font-weight="bold" lengthAdjust="spacingAndGlyphs" textLength="18" x="745.5" y="698.9185">18</text><text fill="#000000" font-family="Lucida Sans" font-size="13" lengthAdjust="spacingAndGlyphs" textLength="189" x="767.5" y="698.9185">Confirm payment is complete</text><rect fill="none" height="46.2656" style="stroke: #000000; stroke-width: 2.0;" width="522" x="168" y="718.9844"/><polygon fill="#EEEEEE" points="168,718.9844,245,718.9844,245,725.9844,235,735.9844,168,735.9844,168,718.9844" style="stroke: #000000; stroke-width: 2.0;"/><text fill="#000000" font-family="Lucida Sans" font-size="13" font-weight="bold" lengthAdjust="spacingAndGlyphs" textLength="32" x="183" y="732.0513">loop</text><text fill="#000000" font-family="Lucida Sans" font-size="11" font-weight="bold" lengthAdjust="spacingAndGlyphs" textLength="181" x="260" y="731.1948">[until payment is confirmed]</text><polygon fill="#A80036" points="247,753.1172,237,757.1172,247,761.1172,243,757.1172" style="stroke: #A80036; stroke-width: 1.0;"/><line style="stroke: #A80036; stroke-width: 1.0;" x1="241" x2="622" y1="757.1172" y2="757.1172"/><text fill="#000000" font-family="Lucida Sans" font-size="13" font-weight="bold" lengthAdjust="spacingAndGlyphs" textLength="18" x="253" y="752.1841">19</text><text fill="#000000" font-family="Lucida Sans" font-size="13" lengthAdjust="spacingAndGlyphs" textLength="191" x="275" y="752.1841">Latest confirmed transactions</text></g></svg>