<?xml version="1.0" encoding="UTF-8" standalone="yes"?><svg xmlns="http://www.w3.org/2000/svg" xmlns:xlink="http://www.w3.org/1999/xlink" height="1614px" style="width:1635px;height:1614px;" version="1.1" viewBox="0 0 1635 1614" width="1635px"><defs><filter height="300%" id="f1" width="300%" x="-1" y="-1"><feGaussianBlur result="blurOut" stdDeviation="2.0"/><feColorMatrix in="blurOut" result="blurOut2" type="matrix" values="0 0 0 0 0 0 0 0 0 0 0 0 0 0 0 0 0 0 .4 0"/><feOffset dx="4.0" dy="4.0" in="blurOut2" result="blurOut3"/><feBlend in="SourceGraphic" in2="blurOut3" mode="normal"/></filter></defs><g><text fill="#000000" font-family="sans-serif" font-size="14" font-weight="bold" lengthAdjust="spacingAndGlyphs" textLength="625" x="504.25" y="22.9951">Legacy Merchant Hosted Card Payment with Acquirer Supported 3DS (Current)</text><text fill="#000000" font-family="sans-serif" font-size="14" font-weight="bold" lengthAdjust="spacingAndGlyphs" textLength="0" x="819.25" y="39.292"/><text fill="#000000" font-family="sans-serif" font-size="14" font-style="italic" font-weight="bold" lengthAdjust="spacingAndGlyphs" textLength="1115" x="259.25" y="55.5889">3DS is used to add confidence that the payer is who they say they are and importantly in the event of a dispute liability shift to the Issuer.</text><rect fill="#FFFFFF" filter="url(#f1)" height="90.3984" style="stroke: #000000; stroke-width: 2.0;" width="447" x="597.5" y="319.7188"/><rect fill="#FFFFFF" height="44.1328" style="stroke: none; stroke-width: 1.0;" width="447" x="597.5" y="365.9844"/><rect fill="#FFFFFF" filter="url(#f1)" height="59.2656" style="stroke: #000000; stroke-width: 2.0;" width="269" x="326" y="496.3828"/><rect fill="#FFFFFF" filter="url(#f1)" height="90.3984" style="stroke: #000000; stroke-width: 2.0;" width="582" x="13" y="1321.7031"/><rect fill="#FFFFFF" height="44.1328" style="stroke: none; stroke-width: 1.0;" width="582" x="13" y="1367.9688"/><line style="stroke: #A80036; stroke-width: 1.0; stroke-dasharray: 5.0,5.0;" x1="143" x2="143" y1="149.1875" y2="1530.5"/><line style="stroke: #A80036; stroke-width: 1.0; stroke-dasharray: 5.0,5.0;" x1="460" x2="460" y1="149.1875" y2="1530.5"/><line style="stroke: #A80036; stroke-width: 1.0; stroke-dasharray: 5.0,5.0;" x1="741.5" x2="741.5" y1="149.1875" y2="1530.5"/><line style="stroke: #A80036; stroke-width: 1.0; stroke-dasharray: 5.0,5.0;" x1="959.5" x2="959.5" y1="149.1875" y2="1530.5"/><line style="stroke: #A80036; stroke-width: 1.0; stroke-dasharray: 5.0,5.0;" x1="1132.5" x2="1132.5" y1="149.1875" y2="1530.5"/><line style="stroke: #A80036; stroke-width: 1.0; stroke-dasharray: 5.0,5.0;" x1="1342.5" x2="1342.5" y1="149.1875" y2="1530.5"/><line style="stroke: #A80036; stroke-width: 1.0; stroke-dasharray: 5.0,5.0;" x1="1544.5" x2="1544.5" y1="149.1875" y2="1530.5"/><rect fill="#FEFECE" filter="url(#f1)" height="30.2969" style="stroke: #A80036; stroke-width: 1.5;" width="237" x="23" y="113.8906"/><text fill="#000000" font-family="sans-serif" font-size="14" lengthAdjust="spacingAndGlyphs" textLength="223" x="30" y="133.8857">Payee (Merchant) PSP [Acquirer]</text><rect fill="#FEFECE" filter="url(#f1)" height="30.2969" style="stroke: #A80036; stroke-width: 1.5;" width="237" x="23" y="1529.5"/><text fill="#000000" font-family="sans-serif" font-size="14" lengthAdjust="spacingAndGlyphs" textLength="223" x="30" y="1549.4951">Payee (Merchant) PSP [Acquirer]</text><rect fill="#FEFECE" filter="url(#f1)" height="30.2969" style="stroke: #A80036; stroke-width: 1.5;" width="245" x="336" y="113.8906"/><text fill="#000000" font-family="sans-serif" font-size="14" lengthAdjust="spacingAndGlyphs" textLength="227" x="343" y="133.8857">Payee (Merchant) [Acceptor] Site</text><rect fill="#FEFECE" filter="url(#f1)" height="30.2969" style="stroke: #A80036; stroke-width: 1.5;" width="245" x="336" y="1529.5"/><text fill="#000000" font-family="sans-serif" font-size="14" lengthAdjust="spacingAndGlyphs" textLength="227" x="343" y="1549.4951">Payee (Merchant) [Acceptor] Site</text><text fill="#000000" font-family="sans-serif" font-size="14" lengthAdjust="spacingAndGlyphs" textLength="262" x="607.5" y="145.8857">Payer (Shopper) [Cardholder] Browser</text><ellipse cx="741.5" cy="75.8906" fill="#FEFECE" filter="url(#f1)" rx="8" ry="8" style="stroke: #A80036; stroke-width: 2.0;"/><path d="M741.5,83.8906 L741.5,110.8906 M728.5,91.8906 L754.5,91.8906 M741.5,110.8906 L728.5,125.8906 M741.5,110.8906 L754.5,125.8906 " fill="#FEFECE" filter="url(#f1)" style="stroke: #A80036; stroke-width: 2.0;"/><text fill="#000000" font-family="sans-serif" font-size="14" lengthAdjust="spacingAndGlyphs" textLength="262" x="607.5" y="1542.4951">Payer (Shopper) [Cardholder] Browser</text><ellipse cx="741.5" cy="1555.7969" fill="#FEFECE" filter="url(#f1)" rx="8" ry="8" style="stroke: #A80036; stroke-width: 2.0;"/><path d="M741.5,1563.7969 L741.5,1590.7969 M728.5,1571.7969 L754.5,1571.7969 M741.5,1590.7969 L728.5,1605.7969 M741.5,1590.7969 L754.5,1605.7969 " fill="#FEFECE" filter="url(#f1)" style="stroke: #A80036; stroke-width: 2.0;"/><rect fill="#FEFECE" filter="url(#f1)" height="30.2969" style="stroke: #A80036; stroke-width: 1.5;" width="145" x="885.5" y="113.8906"/><text fill="#000000" font-family="sans-serif" font-size="14" lengthAdjust="spacingAndGlyphs" textLength="131" x="892.5" y="133.8857">Browser Form Filler</text><rect fill="#FEFECE" filter="url(#f1)" height="30.2969" style="stroke: #A80036; stroke-width: 1.5;" width="145" x="885.5" y="1529.5"/><text fill="#000000" font-family="sans-serif" font-size="14" lengthAdjust="spacingAndGlyphs" textLength="131" x="892.5" y="1549.4951">Browser Form Filler</text><rect fill="#FEFECE" filter="url(#f1)" height="30.2969" style="stroke: #A80036; stroke-width: 1.5;" width="173" x="1044.5" y="113.8906"/><text fill="#000000" font-family="sans-serif" font-size="14" lengthAdjust="spacingAndGlyphs" textLength="159" x="1051.5" y="133.8857">Card Scheme Directory</text><rect fill="#FEFECE" filter="url(#f1)" height="30.2969" style="stroke: #A80036; stroke-width: 1.5;" width="173" x="1044.5" y="1529.5"/><text fill="#000000" font-family="sans-serif" font-size="14" lengthAdjust="spacingAndGlyphs" textLength="159" x="1051.5" y="1549.4951">Card Scheme Directory</text><rect fill="#FEFECE" filter="url(#f1)" height="30.2969" style="stroke: #A80036; stroke-width: 1.5;" width="218" x="1231.5" y="113.8906"/><text fill="#000000" font-family="sans-serif" font-size="14" lengthAdjust="spacingAndGlyphs" textLength="204" x="1238.5" y="133.8857">Issuing Bank [Issuer] Website</text><rect fill="#FEFECE" filter="url(#f1)" height="30.2969" style="stroke: #A80036; stroke-width: 1.5;" width="218" x="1231.5" y="1529.5"/><text fill="#000000" font-family="sans-serif" font-size="14" lengthAdjust="spacingAndGlyphs" textLength="204" x="1238.5" y="1549.4951">Issuing Bank [Issuer] Website</text><rect fill="#FEFECE" filter="url(#f1)" height="30.2969" style="stroke: #A80036; stroke-width: 1.5;" width="158" x="1463.5" y="113.8906"/><text fill="#000000" font-family="sans-serif" font-size="14" lengthAdjust="spacingAndGlyphs" textLength="144" x="1470.5" y="133.8857">Issuing Bank [Issuer]</text><rect fill="#FEFECE" filter="url(#f1)" height="30.2969" style="stroke: #A80036; stroke-width: 1.5;" width="158" x="1463.5" y="1529.5"/><text fill="#000000" font-family="sans-serif" font-size="14" lengthAdjust="spacingAndGlyphs" textLength="144" x="1470.5" y="1549.4951">Issuing Bank [Issuer]</text><polygon fill="#FBFB77" filter="url(#f1)" points="333,164.1875,333,189.1875,867,189.1875,867,174.1875,857,164.1875,333,164.1875" style="stroke: #A80036; stroke-width: 1.0;"/><line style="stroke: #A80036; stroke-width: 1.0;" x1="857" x2="857" y1="164.1875" y2="174.1875"/><line style="stroke: #A80036; stroke-width: 1.0;" x1="867" x2="857" y1="174.1875" y2="174.1875"/><text fill="#000000" font-family="sans-serif" font-size="13" lengthAdjust="spacingAndGlyphs" textLength="41" x="573.25" y="181.2544">HTTPS</text><rect fill="#EEEEEE" filter="url(#f1)" height="3" style="stroke: #EEEEEE; stroke-width: 1.0;" width="1627.5" x="3" y="218.8867"/><line style="stroke: #000000; stroke-width: 1.0;" x1="3" x2="1630.5" y1="218.8867" y2="218.8867"/><line style="stroke: #000000; stroke-width: 1.0;" x1="3" x2="1630.5" y1="221.8867" y2="221.8867"/><rect fill="#EEEEEE" filter="url(#f1)" height="23.1328" style="stroke: #000000; stroke-width: 2.0;" width="237" x="698.25" y="208.3203"/><text fill="#000000" font-family="sans-serif" font-size="13" font-weight="bold" lengthAdjust="spacingAndGlyphs" textLength="218" x="704.25" y="224.3872">Establish Payment Obligation</text><polygon fill="#A80036" points="729.5,258.4531,739.5,262.4531,729.5,266.4531,733.5,262.4531" style="stroke: #A80036; stroke-width: 1.0;"/><line style="stroke: #A80036; stroke-width: 1.0;" x1="460.5" x2="735.5" y1="262.4531" y2="262.4531"/><text fill="#000000" font-family="sans-serif" font-size="13" lengthAdjust="spacingAndGlyphs" textLength="257" x="467.5" y="257.52">Present Check-out page with Pay Button</text><line style="stroke: #A80036; stroke-width: 1.0;" x1="741.5" x2="783.5" y1="291.7188" y2="291.7188"/><line style="stroke: #A80036; stroke-width: 1.0;" x1="783.5" x2="783.5" y1="291.7188" y2="304.7188"/><line style="stroke: #A80036; stroke-width: 1.0;" x1="742.5" x2="783.5" y1="304.7188" y2="304.7188"/><polygon fill="#A80036" points="752.5,300.7188,742.5,304.7188,752.5,308.7188,748.5,304.7188" style="stroke: #A80036; stroke-width: 1.0;"/><text fill="#000000" font-family="sans-serif" font-size="13" lengthAdjust="spacingAndGlyphs" textLength="187" x="748.5" y="286.6528">Select Card Payment Method</text><rect fill="none" height="90.3984" style="stroke: #000000; stroke-width: 2.0;" width="447" x="597.5" y="319.7188"/><polygon fill="#EEEEEE" points="597.5,319.7188,661.5,319.7188,661.5,326.7188,651.5,336.7188,597.5,336.7188,597.5,319.7188" style="stroke: #000000; stroke-width: 2.0;"/><text fill="#000000" font-family="sans-serif" font-size="13" font-weight="bold" lengthAdjust="spacingAndGlyphs" textLength="19" x="612.5" y="332.7856">alt</text><polygon fill="#A80036" points="752.5,353.8516,742.5,357.8516,752.5,361.8516,748.5,357.8516" style="stroke: #A80036; stroke-width: 1.0;"/><line style="stroke: #A80036; stroke-width: 1.0;" x1="746.5" x2="959" y1="357.8516" y2="357.8516"/><text fill="#000000" font-family="sans-serif" font-size="13" lengthAdjust="spacingAndGlyphs" textLength="53" x="758.5" y="352.9185">Form Fill</text><line style="stroke: #000000; stroke-width: 1.0; stroke-dasharray: 2.0,2.0;" x1="597.5" x2="1044.5" y1="366.9844" y2="366.9844"/><line style="stroke: #A80036; stroke-width: 1.0;" x1="741.5" x2="783.5" y1="389.1172" y2="389.1172"/><line style="stroke: #A80036; stroke-width: 1.0;" x1="783.5" x2="783.5" y1="389.1172" y2="402.1172"/><line style="stroke: #A80036; stroke-width: 1.0;" x1="742.5" x2="783.5" y1="402.1172" y2="402.1172"/><polygon fill="#A80036" points="752.5,398.1172,742.5,402.1172,752.5,406.1172,748.5,402.1172" style="stroke: #A80036; stroke-width: 1.0;"/><text fill="#000000" font-family="sans-serif" font-size="13" lengthAdjust="spacingAndGlyphs" textLength="94" x="748.5" y="384.0513">User Fills Form</text><rect fill="#EEEEEE" filter="url(#f1)" height="3" style="stroke: #EEEEEE; stroke-width: 1.0;" width="1627.5" x="3" y="437.6836"/><line style="stroke: #000000; stroke-width: 1.0;" x1="3" x2="1630.5" y1="437.6836" y2="437.6836"/><line style="stroke: #000000; stroke-width: 1.0;" x1="3" x2="1630.5" y1="440.6836" y2="440.6836"/><rect fill="#EEEEEE" filter="url(#f1)" height="23.1328" style="stroke: #000000; stroke-width: 2.0;" width="193" x="720.25" y="427.1172"/><text fill="#000000" font-family="sans-serif" font-size="13" font-weight="bold" lengthAdjust="spacingAndGlyphs" textLength="174" x="726.25" y="443.1841">Card Payment Initiation</text><polygon fill="#A80036" points="471.5,477.25,461.5,481.25,471.5,485.25,467.5,481.25" style="stroke: #A80036; stroke-width: 1.0;"/><line style="stroke: #A80036; stroke-width: 1.0;" x1="465.5" x2="740.5" y1="481.25" y2="481.25"/><text fill="#000000" font-family="sans-serif" font-size="13" lengthAdjust="spacingAndGlyphs" textLength="115" x="477.5" y="476.3169">Payment Initiation</text><rect fill="none" height="59.2656" style="stroke: #000000; stroke-width: 2.0;" width="269" x="326" y="496.3828"/><polygon fill="#EEEEEE" points="326,496.3828,396,496.3828,396,503.3828,386,513.3828,326,513.3828,326,496.3828" style="stroke: #000000; stroke-width: 2.0;"/><text fill="#000000" font-family="sans-serif" font-size="13" font-weight="bold" lengthAdjust="spacingAndGlyphs" textLength="25" x="341" y="509.4497">opt</text><line style="stroke: #A80036; stroke-width: 1.0;" x1="460.5" x2="502.5" y1="534.6484" y2="534.6484"/><line style="stroke: #A80036; stroke-width: 1.0;" x1="502.5" x2="502.5" y1="534.6484" y2="547.6484"/><line style="stroke: #A80036; stroke-width: 1.0;" x1="461.5" x2="502.5" y1="547.6484" y2="547.6484"/><polygon fill="#A80036" points="471.5,543.6484,461.5,547.6484,471.5,551.6484,467.5,547.6484" style="stroke: #A80036; stroke-width: 1.0;"/><text fill="#000000" font-family="sans-serif" font-size="13" lengthAdjust="spacingAndGlyphs" textLength="69" x="467.5" y="529.5825">Store Card</text><polygon fill="#A80036" points="154.5,579.6484,144.5,583.6484,154.5,583.6484" style="stroke: #A80036; stroke-width: 1.0;"/><line style="stroke: #A80036; stroke-width: 1.0;" x1="143.5" x2="459.5" y1="583.6484" y2="583.6484"/><text fill="#000000" font-family="sans-serif" font-size="13" lengthAdjust="spacingAndGlyphs" textLength="61" x="160.5" y="578.7153">Authorise</text><rect fill="#EEEEEE" filter="url(#f1)" height="3" style="stroke: #EEEEEE; stroke-width: 1.0;" width="1627.5" x="3" y="612.3477"/><line style="stroke: #000000; stroke-width: 1.0;" x1="3" x2="1630.5" y1="612.3477" y2="612.3477"/><line style="stroke: #000000; stroke-width: 1.0;" x1="3" x2="1630.5" y1="615.3477" y2="615.3477"/><rect fill="#EEEEEE" filter="url(#f1)" height="23.1328" style="stroke: #000000; stroke-width: 2.0;" width="140" x="746.75" y="601.7813"/><text fill="#000000" font-family="sans-serif" font-size="13" font-weight="bold" lengthAdjust="spacingAndGlyphs" textLength="121" x="752.75" y="617.8481">3DS part of flow</text><polygon fill="#A80036" points="1121,651.9141,1131,655.9141,1121,659.9141,1125,655.9141" style="stroke: #A80036; stroke-width: 1.0;"/><line style="stroke: #A80036; stroke-width: 1.0;" x1="143.5" x2="1127" y1="655.9141" y2="655.9141"/><text fill="#000000" font-family="sans-serif" font-size="13" lengthAdjust="spacingAndGlyphs" textLength="233" x="150.5" y="650.981">BIN to URL lookup (VAReq message)</text><line style="stroke: #A80036; stroke-width: 1.0;" x1="1133" x2="1175" y1="685.1797" y2="685.1797"/><line style="stroke: #A80036; stroke-width: 1.0;" x1="1175" x2="1175" y1="685.1797" y2="698.1797"/><line style="stroke: #A80036; stroke-width: 1.0;" x1="1134" x2="1175" y1="698.1797" y2="698.1797"/><polygon fill="#A80036" points="1144,694.1797,1134,698.1797,1144,702.1797,1140,698.1797" style="stroke: #A80036; stroke-width: 1.0;"/><text fill="#000000" font-family="sans-serif" font-size="13" lengthAdjust="spacingAndGlyphs" textLength="135" x="1140" y="680.1138">Lookup URL from BIN</text><polygon fill="#A80036" points="1330.5,723.1797,1340.5,727.1797,1330.5,731.1797,1334.5,727.1797" style="stroke: #A80036; stroke-width: 1.0;"/><line style="stroke: #A80036; stroke-width: 1.0;" x1="1133" x2="1336.5" y1="727.1797" y2="727.1797"/><text fill="#000000" font-family="sans-serif" font-size="13" lengthAdjust="spacingAndGlyphs" textLength="45" x="1140" y="722.2466">“PING”</text><polygon fill="#A80036" points="1144,752.3125,1134,756.3125,1144,760.3125,1140,756.3125" style="stroke: #A80036; stroke-width: 1.0;"/><line style="stroke: #A80036; stroke-width: 1.0;" x1="1138" x2="1341.5" y1="756.3125" y2="756.3125"/><text fill="#000000" font-family="sans-serif" font-size="13" lengthAdjust="spacingAndGlyphs" textLength="108" x="1150" y="751.3794">“PING” response</text><polygon fill="#A80036" points="154.5,781.4453,144.5,785.4453,154.5,789.4453,150.5,785.4453" style="stroke: #A80036; stroke-width: 1.0;"/><line style="stroke: #A80036; stroke-width: 1.0;" x1="148.5" x2="1132" y1="785.4453" y2="785.4453"/><text fill="#000000" font-family="sans-serif" font-size="13" lengthAdjust="spacingAndGlyphs" textLength="25" x="160.5" y="780.5122">URL</text><polygon fill="#A80036" points="448.5,815.5781,458.5,815.5781,448.5,819.5781" style="stroke: #A80036; stroke-width: 1.0;"/><line style="stroke: #A80036; stroke-width: 1.0;" x1="143.5" x2="459.5" y1="814.5781" y2="814.5781"/><text fill="#000000" font-family="sans-serif" font-size="13" lengthAdjust="spacingAndGlyphs" textLength="198" x="150.5" y="809.645">3DS redirect (PAReq message)</text><polygon fill="#A80036" points="729.5,839.7109,739.5,843.7109,729.5,847.7109,733.5,843.7109" style="stroke: #A80036; stroke-width: 1.0;"/><line style="stroke: #A80036; stroke-width: 1.0;" x1="460.5" x2="735.5" y1="843.7109" y2="843.7109"/><text fill="#000000" font-family="sans-serif" font-size="13" lengthAdjust="spacingAndGlyphs" textLength="198" x="467.5" y="838.7778">3DS redirect (PAReq message)</text><polygon fill="#A80036" points="1330.5,868.8438,1340.5,872.8438,1330.5,876.8438,1334.5,872.8438" style="stroke: #A80036; stroke-width: 1.0;"/><line style="stroke: #A80036; stroke-width: 1.0;" x1="741.5" x2="1336.5" y1="872.8438" y2="872.8438"/><text fill="#000000" font-family="sans-serif" font-size="13" lengthAdjust="spacingAndGlyphs" textLength="72" x="748.5" y="867.9106">3DS invoke</text><polygon fill="#A80036" points="752.5,897.9766,742.5,901.9766,752.5,901.9766" style="stroke: #A80036; stroke-width: 1.0;"/><line style="stroke: #A80036; stroke-width: 1.0;" x1="741.5" x2="1341.5" y1="901.9766" y2="901.9766"/><text fill="#000000" font-family="sans-serif" font-size="13" lengthAdjust="spacingAndGlyphs" textLength="92" x="758.5" y="897.0435">3DS challenge</text><polygon fill="#A80036" points="1330.5,932.1094,1340.5,932.1094,1330.5,936.1094" style="stroke: #A80036; stroke-width: 1.0;"/><line style="stroke: #A80036; stroke-width: 1.0;" x1="741.5" x2="1341.5" y1="931.1094" y2="931.1094"/><text fill="#000000" font-family="sans-serif" font-size="13" lengthAdjust="spacingAndGlyphs" textLength="207" x="748.5" y="926.1763">3DS response (PARes message)</text><polygon fill="#A80036" points="752.5,956.2422,742.5,960.2422,752.5,964.2422,748.5,960.2422" style="stroke: #A80036; stroke-width: 1.0;"/><line style="stroke: #A80036; stroke-width: 1.0;" x1="746.5" x2="1341.5" y1="960.2422" y2="960.2422"/><text fill="#000000" font-family="sans-serif" font-size="13" lengthAdjust="spacingAndGlyphs" textLength="207" x="758.5" y="955.3091">3DS response (PARes message)</text><polygon fill="#A80036" points="471.5,985.375,461.5,989.375,471.5,993.375,467.5,989.375" style="stroke: #A80036; stroke-width: 1.0;"/><line style="stroke: #A80036; stroke-width: 1.0;" x1="465.5" x2="740.5" y1="989.375" y2="989.375"/><text fill="#000000" font-family="sans-serif" font-size="13" lengthAdjust="spacingAndGlyphs" textLength="207" x="477.5" y="984.4419">3DS response (PARes message)</text><polygon fill="#A80036" points="154.5,1014.5078,144.5,1018.5078,154.5,1018.5078" style="stroke: #A80036; stroke-width: 1.0;"/><line style="stroke: #A80036; stroke-width: 1.0;" x1="143.5" x2="459.5" y1="1018.5078" y2="1018.5078"/><text fill="#000000" font-family="sans-serif" font-size="13" lengthAdjust="spacingAndGlyphs" textLength="207" x="160.5" y="1013.5747">3DS response (PARes message)</text><line style="stroke: #A80036; stroke-width: 1.0;" x1="143.5" x2="185.5" y1="1047.7734" y2="1047.7734"/><line style="stroke: #A80036; stroke-width: 1.0;" x1="185.5" x2="185.5" y1="1047.7734" y2="1060.7734"/><line style="stroke: #A80036; stroke-width: 1.0;" x1="144.5" x2="185.5" y1="1060.7734" y2="1060.7734"/><polygon fill="#A80036" points="154.5,1056.7734,144.5,1060.7734,154.5,1064.7734,150.5,1060.7734" style="stroke: #A80036; stroke-width: 1.0;"/><text fill="#000000" font-family="sans-serif" font-size="13" lengthAdjust="spacingAndGlyphs" textLength="195" x="150.5" y="1042.7075">Verification of PARes signature</text><rect fill="#EEEEEE" filter="url(#f1)" height="3" style="stroke: #EEEEEE; stroke-width: 1.0;" width="1627.5" x="3" y="1089.3398"/><line style="stroke: #000000; stroke-width: 1.0;" x1="3" x2="1630.5" y1="1089.3398" y2="1089.3398"/><line style="stroke: #000000; stroke-width: 1.0;" x1="3" x2="1630.5" y1="1092.3398" y2="1092.3398"/><rect fill="#EEEEEE" filter="url(#f1)" height="23.1328" style="stroke: #000000; stroke-width: 2.0;" width="101" x="766.25" y="1078.7734"/><text fill="#000000" font-family="sans-serif" font-size="13" font-weight="bold" lengthAdjust="spacingAndGlyphs" textLength="82" x="772.25" y="1094.8403">End of 3DS</text><polygon fill="#A80036" points="1532.5,1128.9063,1542.5,1132.9063,1532.5,1132.9063" style="stroke: #A80036; stroke-width: 1.0;"/><line style="stroke: #A80036; stroke-width: 1.0;" x1="143.5" x2="1543.5" y1="1132.9063" y2="1132.9063"/><text fill="#000000" font-family="sans-serif" font-size="13" lengthAdjust="spacingAndGlyphs" textLength="141" x="150.5" y="1127.9731">Authorisation Request</text><polygon fill="#A80036" points="154.5,1163.0391,144.5,1163.0391,154.5,1167.0391" style="stroke: #A80036; stroke-width: 1.0;"/><line style="stroke: #A80036; stroke-width: 1.0;" x1="143.5" x2="1543.5" y1="1162.0391" y2="1162.0391"/><text fill="#000000" font-family="sans-serif" font-size="13" lengthAdjust="spacingAndGlyphs" textLength="151" x="160.5" y="1157.106">Authorisation Response</text><polygon fill="#A80036" points="448.5,1192.1719,458.5,1192.1719,448.5,1196.1719" style="stroke: #A80036; stroke-width: 1.0;"/><line style="stroke: #A80036; stroke-width: 1.0;" x1="143.5" x2="459.5" y1="1191.1719" y2="1191.1719"/><text fill="#000000" font-family="sans-serif" font-size="13" lengthAdjust="spacingAndGlyphs" textLength="151" x="150.5" y="1186.2388">Authorisation Response</text><rect fill="#EEEEEE" filter="url(#f1)" height="3" style="stroke: #EEEEEE; stroke-width: 1.0;" width="1627.5" x="3" y="1219.8711"/><line style="stroke: #000000; stroke-width: 1.0;" x1="3" x2="1630.5" y1="1219.8711" y2="1219.8711"/><line style="stroke: #000000; stroke-width: 1.0;" x1="3" x2="1630.5" y1="1222.8711" y2="1222.8711"/><rect fill="#EEEEEE" filter="url(#f1)" height="23.1328" style="stroke: #000000; stroke-width: 2.0;" width="104" x="764.75" y="1209.3047"/><text fill="#000000" font-family="sans-serif" font-size="13" font-weight="bold" lengthAdjust="spacingAndGlyphs" textLength="85" x="770.75" y="1225.3716">Notification</text><polygon fill="#A80036" points="729.5,1259.4375,739.5,1263.4375,729.5,1267.4375,733.5,1263.4375" style="stroke: #A80036; stroke-width: 1.0;"/><line style="stroke: #A80036; stroke-width: 1.0;" x1="460.5" x2="735.5" y1="1263.4375" y2="1263.4375"/><text fill="#000000" font-family="sans-serif" font-size="13" lengthAdjust="spacingAndGlyphs" textLength="75" x="467.5" y="1258.5044">Result Page</text><rect fill="#EEEEEE" filter="url(#f1)" height="3" style="stroke: #EEEEEE; stroke-width: 1.0;" width="1627.5" x="3" y="1292.1367"/><line style="stroke: #000000; stroke-width: 1.0;" x1="3" x2="1630.5" y1="1292.1367" y2="1292.1367"/><line style="stroke: #000000; stroke-width: 1.0;" x1="3" x2="1630.5" y1="1295.1367" y2="1295.1367"/><rect fill="#EEEEEE" filter="url(#f1)" height="23.1328" style="stroke: #000000; stroke-width: 2.0;" width="704" x="464.75" y="1281.5703"/><text fill="#000000" font-family="sans-serif" font-size="13" font-weight="bold" lengthAdjust="spacingAndGlyphs" textLength="685" x="470.75" y="1297.6372">Request for Settlement process (could be immediate, batch (e.g. daily) or after some days)</text><rect fill="none" height="90.3984" style="stroke: #000000; stroke-width: 2.0;" width="582" x="13" y="1321.7031"/><polygon fill="#EEEEEE" points="13,1321.7031,77,1321.7031,77,1328.7031,67,1338.7031,13,1338.7031,13,1321.7031" style="stroke: #000000; stroke-width: 2.0;"/><text fill="#000000" font-family="sans-serif" font-size="13" font-weight="bold" lengthAdjust="spacingAndGlyphs" textLength="19" x="28" y="1334.77">alt</text><polygon fill="#A80036" points="154.5,1355.8359,144.5,1359.8359,154.5,1363.8359,150.5,1359.8359" style="stroke: #A80036; stroke-width: 1.0;"/><line style="stroke: #A80036; stroke-width: 1.0;" x1="148.5" x2="459.5" y1="1359.8359" y2="1359.8359"/><text fill="#000000" font-family="sans-serif" font-size="13" lengthAdjust="spacingAndGlyphs" textLength="51" x="160.5" y="1354.9028">Capture</text><line style="stroke: #000000; stroke-width: 1.0; stroke-dasharray: 2.0,2.0;" x1="13" x2="595" y1="1368.9688" y2="1368.9688"/><line style="stroke: #A80036; stroke-width: 1.0;" x1="143.5" x2="185.5" y1="1391.1016" y2="1391.1016"/><line style="stroke: #A80036; stroke-width: 1.0;" x1="185.5" x2="185.5" y1="1391.1016" y2="1404.1016"/><line style="stroke: #A80036; stroke-width: 1.0;" x1="144.5" x2="185.5" y1="1404.1016" y2="1404.1016"/><polygon fill="#A80036" points="154.5,1400.1016,144.5,1404.1016,154.5,1408.1016,150.5,1404.1016" style="stroke: #A80036; stroke-width: 1.0;"/><text fill="#000000" font-family="sans-serif" font-size="13" lengthAdjust="spacingAndGlyphs" textLength="303" x="150.5" y="1386.0356">Auto Capture in batch processing at end-of-day</text><polygon fill="#A80036" points="1532.5,1436.1016,1542.5,1440.1016,1532.5,1444.1016,1536.5,1440.1016" style="stroke: #A80036; stroke-width: 1.0;"/><line style="stroke: #A80036; stroke-width: 1.0;" x1="143.5" x2="1538.5" y1="1440.1016" y2="1440.1016"/><text fill="#000000" font-family="sans-serif" font-size="13" lengthAdjust="spacingAndGlyphs" textLength="51" x="150.5" y="1435.1685">Capture</text><rect fill="#EEEEEE" filter="url(#f1)" height="3" style="stroke: #EEEEEE; stroke-width: 1.0;" width="1627.5" x="3" y="1468.8008"/><line style="stroke: #000000; stroke-width: 1.0;" x1="3" x2="1630.5" y1="1468.8008" y2="1468.8008"/><line style="stroke: #000000; stroke-width: 1.0;" x1="3" x2="1630.5" y1="1471.8008" y2="1471.8008"/><rect fill="#EEEEEE" filter="url(#f1)" height="23.1328" style="stroke: #000000; stroke-width: 2.0;" width="93" x="770.25" y="1458.2344"/><text fill="#000000" font-family="sans-serif" font-size="13" font-weight="bold" lengthAdjust="spacingAndGlyphs" textLength="74" x="776.25" y="1474.3013">Fulfilment</text><polygon fill="#A80036" points="729.5,1508.3672,739.5,1512.3672,729.5,1516.3672,733.5,1512.3672" style="stroke: #A80036; stroke-width: 1.0;"/><line style="stroke: #A80036; stroke-width: 1.0;" x1="460.5" x2="735.5" y1="1512.3672" y2="1512.3672"/><text fill="#000000" font-family="sans-serif" font-size="13" lengthAdjust="spacingAndGlyphs" textLength="180" x="467.5" y="1507.4341">Provide products or services</text></g></svg>