<?xml version="1.0" encoding="UTF-8" standalone="yes"?><svg xmlns="http://www.w3.org/2000/svg" xmlns:xlink="http://www.w3.org/1999/xlink" height="915px" style="width:990px;height:915px;" version="1.1" viewBox="0 0 990 915" width="990px"><defs/><g><text fill="#000000" font-family="Lucida Sans" font-size="14" font-weight="bold" lengthAdjust="spacingAndGlyphs" textLength="288" x="357.25" y="22.9951">PayPal Payment (REST API) (Current)</text><rect fill="#FFFFFF" height="52.2656" style="stroke: #000000; stroke-width: 2.0;" width="694" x="295.5" y="451.9219"/><rect fill="#FFFFFF" height="46.2656" style="stroke: #000000; stroke-width: 2.0;" width="480.5" x="13" y="775.9219"/><line style="stroke: #A80036; stroke-width: 1.0;" x1="105" x2="105" y1="112.5938" y2="698.9844"/><line style="stroke: #A80036; stroke-width: 1.0; stroke-dasharray: 1.0,4.0;" x1="105" x2="105" y1="698.9844" y2="739.7891"/><line style="stroke: #A80036; stroke-width: 1.0;" x1="105" x2="105" y1="739.7891" y2="839.1875"/><line style="stroke: #A80036; stroke-width: 1.0;" x1="394.5" x2="394.5" y1="112.5938" y2="698.9844"/><line style="stroke: #A80036; stroke-width: 1.0; stroke-dasharray: 1.0,4.0;" x1="394.5" x2="394.5" y1="698.9844" y2="739.7891"/><line style="stroke: #A80036; stroke-width: 1.0;" x1="394.5" x2="394.5" y1="739.7891" y2="839.1875"/><line style="stroke: #A80036; stroke-width: 1.0;" x1="622.5" x2="622.5" y1="112.5938" y2="698.9844"/><line style="stroke: #A80036; stroke-width: 1.0; stroke-dasharray: 1.0,4.0;" x1="622.5" x2="622.5" y1="698.9844" y2="739.7891"/><line style="stroke: #A80036; stroke-width: 1.0;" x1="622.5" x2="622.5" y1="739.7891" y2="839.1875"/><line style="stroke: #A80036; stroke-width: 1.0;" x1="765.5" x2="765.5" y1="112.5938" y2="698.9844"/><line style="stroke: #A80036; stroke-width: 1.0; stroke-dasharray: 1.0,4.0;" x1="765.5" x2="765.5" y1="698.9844" y2="739.7891"/><line style="stroke: #A80036; stroke-width: 1.0;" x1="765.5" x2="765.5" y1="739.7891" y2="839.1875"/><rect fill="#FEFECE" height="30.2969" style="stroke: #A80036; stroke-width: 1.5;" width="165" x="23" y="81.2969"/><text fill="#000000" font-family="Lucida Sans" font-size="14" lengthAdjust="spacingAndGlyphs" textLength="151" x="30" y="101.292">Payee (Merchant) Site</text><rect fill="#FEFECE" height="30.2969" style="stroke: #A80036; stroke-width: 1.5;" width="165" x="23" y="838.1875"/><text fill="#000000" font-family="Lucida Sans" font-size="14" lengthAdjust="spacingAndGlyphs" textLength="151" x="30" y="858.1826">Payee (Merchant) Site</text><text fill="#000000" font-family="Lucida Sans" font-size="14" lengthAdjust="spacingAndGlyphs" textLength="172" x="305.5" y="109.292">Payer (Shopper) Browser</text><ellipse cx="394.5" cy="43.2969" fill="#FEFECE" rx="8" ry="8" style="stroke: #A80036; stroke-width: 2.0;"/><path d="M394.5,51.2969 L394.5,78.2969 M381.5,59.2969 L407.5,59.2969 M394.5,78.2969 L381.5,93.2969 M394.5,78.2969 L407.5,93.2969 " fill="#FEFECE" style="stroke: #A80036; stroke-width: 2.0;"/><text fill="#000000" font-family="Lucida Sans" font-size="14" lengthAdjust="spacingAndGlyphs" textLength="172" x="305.5" y="851.1826">Payer (Shopper) Browser</text><ellipse cx="394.5" cy="864.4844" fill="#FEFECE" rx="8" ry="8" style="stroke: #A80036; stroke-width: 2.0;"/><path d="M394.5,872.4844 L394.5,899.4844 M381.5,880.4844 L407.5,880.4844 M394.5,899.4844 L381.5,914.4844 M394.5,899.4844 L407.5,914.4844 " fill="#FEFECE" style="stroke: #A80036; stroke-width: 2.0;"/><rect fill="#FEFECE" height="30.2969" style="stroke: #A80036; stroke-width: 1.5;" width="214" x="515.5" y="81.2969"/><text fill="#000000" font-family="Lucida Sans" font-size="14" lengthAdjust="spacingAndGlyphs" textLength="200" x="522.5" y="101.292">Payer (Shopper) PSP (PayPal)</text><rect fill="#FEFECE" height="30.2969" style="stroke: #A80036; stroke-width: 1.5;" width="214" x="515.5" y="838.1875"/><text fill="#000000" font-family="Lucida Sans" font-size="14" lengthAdjust="spacingAndGlyphs" textLength="200" x="522.5" y="858.1826">Payer (Shopper) PSP (PayPal)</text><rect fill="#FEFECE" height="30.2969" style="stroke: #A80036; stroke-width: 1.5;" width="53" x="739.5" y="81.2969"/><text fill="#000000" font-family="Lucida Sans" font-size="14" lengthAdjust="spacingAndGlyphs" textLength="39" x="746.5" y="101.292">MPSP</text><rect fill="#FEFECE" height="30.2969" style="stroke: #A80036; stroke-width: 1.5;" width="53" x="739.5" y="838.1875"/><text fill="#000000" font-family="Lucida Sans" font-size="14" lengthAdjust="spacingAndGlyphs" textLength="39" x="746.5" y="858.1826">MPSP</text><polygon fill="#FBFB77" points="558,127.5938,558,152.5938,830,152.5938,830,137.5938,820,127.5938,558,127.5938" style="stroke: #A80036; stroke-width: 1.0;"/><line style="stroke: #A80036; stroke-width: 1.0;" x1="820" x2="820" y1="127.5938" y2="137.5938"/><line style="stroke: #A80036; stroke-width: 1.0;" x1="830" x2="820" y1="137.5938" y2="137.5938"/><text fill="#000000" font-family="Lucida Sans" font-size="13" lengthAdjust="spacingAndGlyphs" textLength="41" x="669" y="144.6606">HTTPS</text><polygon fill="#A80036" points="382.5,174.7266,392.5,178.7266,382.5,182.7266,386.5,178.7266" style="stroke: #A80036; stroke-width: 1.0;"/><line style="stroke: #A80036; stroke-width: 1.0;" x1="105.5" x2="388.5" y1="178.7266" y2="178.7266"/><text fill="#000000" font-family="Lucida Sans" font-size="13" font-weight="bold" lengthAdjust="spacingAndGlyphs" textLength="9" x="112.5" y="173.7935">1</text><text fill="#000000" font-family="Lucida Sans" font-size="13" lengthAdjust="spacingAndGlyphs" textLength="252" x="125.5" y="173.7935">Present Checkout Page with Pay Button</text><line style="stroke: #A80036; stroke-width: 1.0;" x1="394.5" x2="436.5" y1="207.9922" y2="207.9922"/><line style="stroke: #A80036; stroke-width: 1.0;" x1="436.5" x2="436.5" y1="207.9922" y2="220.9922"/><line style="stroke: #A80036; stroke-width: 1.0;" x1="395.5" x2="436.5" y1="220.9922" y2="220.9922"/><polygon fill="#A80036" points="405.5,216.9922,395.5,220.9922,405.5,224.9922,401.5,220.9922" style="stroke: #A80036; stroke-width: 1.0;"/><text fill="#000000" font-family="Lucida Sans" font-size="13" font-weight="bold" lengthAdjust="spacingAndGlyphs" textLength="9" x="401.5" y="202.9263">2</text><text fill="#000000" font-family="Lucida Sans" font-size="13" lengthAdjust="spacingAndGlyphs" textLength="199" x="414.5" y="202.9263">Select PayPal Payment Method</text><polygon fill="#A80036" points="116.5,245.9922,106.5,249.9922,116.5,249.9922" style="stroke: #A80036; stroke-width: 1.0;"/><line style="stroke: #A80036; stroke-width: 1.0;" x1="105.5" x2="393.5" y1="249.9922" y2="249.9922"/><text fill="#000000" font-family="Lucida Sans" font-size="13" font-weight="bold" lengthAdjust="spacingAndGlyphs" textLength="9" x="122.5" y="245.0591">3</text><text fill="#000000" font-family="Lucida Sans" font-size="13" lengthAdjust="spacingAndGlyphs" textLength="149" x="135.5" y="245.0591">Payment Page Request</text><polygon fill="#A80036" points="116.5,275.125,106.5,279.125,116.5,283.125,112.5,279.125" style="stroke: #A80036; stroke-width: 1.0;"/><polygon fill="#A80036" points="610.5,275.125,620.5,279.125,610.5,283.125,614.5,279.125" style="stroke: #A80036; stroke-width: 1.0;"/><line style="stroke: #A80036; stroke-width: 1.0;" x1="110.5" x2="616.5" y1="279.125" y2="279.125"/><text fill="#000000" font-family="Lucida Sans" font-size="13" font-weight="bold" lengthAdjust="spacingAndGlyphs" textLength="9" x="122.5" y="274.1919">4</text><text fill="#000000" font-family="Lucida Sans" font-size="13" lengthAdjust="spacingAndGlyphs" textLength="104" x="135.5" y="274.1919">Create Payment</text><polygon fill="#A80036" points="382.5,312.2578,392.5,312.2578,382.5,316.2578" style="stroke: #A80036; stroke-width: 1.0;"/><line style="stroke: #A80036; stroke-width: 1.0;" x1="105.5" x2="393.5" y1="311.2578" y2="311.2578"/><text fill="#000000" font-family="Lucida Sans" font-size="13" font-weight="bold" lengthAdjust="spacingAndGlyphs" textLength="9" x="112.5" y="306.3247">5</text><text fill="#000000" font-family="Lucida Sans" font-size="13" lengthAdjust="spacingAndGlyphs" textLength="88" x="125.5" y="306.3247">HTTP Redirect</text><polygon fill="#FBFB77" points="399,292.2578,399,317.2578,754,317.2578,754,302.2578,744,292.2578,399,292.2578" style="stroke: #A80036; stroke-width: 1.0;"/><line style="stroke: #A80036; stroke-width: 1.0;" x1="744" x2="744" y1="292.2578" y2="302.2578"/><line style="stroke: #A80036; stroke-width: 1.0;" x1="754" x2="744" y1="302.2578" y2="302.2578"/><text fill="#000000" font-family="Lucida Sans" font-size="13" lengthAdjust="spacingAndGlyphs" textLength="334" x="405" y="309.3247">HTTP Direct now send the shopper to the PayPal site</text><polygon fill="#A80036" points="610.5,339.3906,620.5,343.3906,610.5,343.3906" style="stroke: #A80036; stroke-width: 1.0;"/><line style="stroke: #A80036; stroke-width: 1.0;" x1="394.5" x2="621.5" y1="343.3906" y2="343.3906"/><text fill="#000000" font-family="Lucida Sans" font-size="13" font-weight="bold" lengthAdjust="spacingAndGlyphs" textLength="9" x="401.5" y="338.4575">6</text><text fill="#000000" font-family="Lucida Sans" font-size="13" lengthAdjust="spacingAndGlyphs" textLength="115" x="414.5" y="338.4575">Payment Initiation</text><polygon fill="#A80036" points="405.5,373.5234,395.5,373.5234,405.5,377.5234" style="stroke: #A80036; stroke-width: 1.0;"/><line style="stroke: #A80036; stroke-width: 1.0;" x1="394.5" x2="621.5" y1="372.5234" y2="372.5234"/><text fill="#000000" font-family="Lucida Sans" font-size="13" font-weight="bold" lengthAdjust="spacingAndGlyphs" textLength="9" x="411.5" y="367.5903">7</text><text fill="#000000" font-family="Lucida Sans" font-size="13" lengthAdjust="spacingAndGlyphs" textLength="129" x="424.5" y="367.5903">Authentication Page</text><polygon fill="#A80036" points="610.5,400.6563,620.5,404.6563,610.5,404.6563" style="stroke: #A80036; stroke-width: 1.0;"/><line style="stroke: #A80036; stroke-width: 1.0;" x1="394.5" x2="621.5" y1="404.6563" y2="404.6563"/><text fill="#000000" font-family="Lucida Sans" font-size="13" font-weight="bold" lengthAdjust="spacingAndGlyphs" textLength="9" x="401.5" y="399.7231">8</text><text fill="#000000" font-family="Lucida Sans" font-size="13" lengthAdjust="spacingAndGlyphs" textLength="82" x="414.5" y="399.7231">Authenticate</text><polygon fill="#FBFB77" points="627,385.6563,627,410.6563,861,410.6563,861,395.6563,851,385.6563,627,385.6563" style="stroke: #A80036; stroke-width: 1.0;"/><line style="stroke: #A80036; stroke-width: 1.0;" x1="851" x2="851" y1="385.6563" y2="395.6563"/><line style="stroke: #A80036; stroke-width: 1.0;" x1="861" x2="851" y1="395.6563" y2="395.6563"/><text fill="#000000" font-family="Lucida Sans" font-size="13" lengthAdjust="spacingAndGlyphs" textLength="213" x="633" y="402.7231">Typically a username &amp; password</text><polygon fill="#A80036" points="405.5,437.7891,395.5,437.7891,405.5,441.7891" style="stroke: #A80036; stroke-width: 1.0;"/><line style="stroke: #A80036; stroke-width: 1.0;" x1="394.5" x2="621.5" y1="436.7891" y2="436.7891"/><text fill="#000000" font-family="Lucida Sans" font-size="13" font-weight="bold" lengthAdjust="spacingAndGlyphs" textLength="9" x="411.5" y="431.856">9</text><text fill="#000000" font-family="Lucida Sans" font-size="13" lengthAdjust="spacingAndGlyphs" textLength="93" x="424.5" y="431.856">Payment Page</text><rect fill="none" height="52.2656" style="stroke: #000000; stroke-width: 2.0;" width="694" x="295.5" y="451.9219"/><polygon fill="#EEEEEE" points="295.5,451.9219,365.5,451.9219,365.5,458.9219,355.5,468.9219,295.5,468.9219,295.5,451.9219" style="stroke: #000000; stroke-width: 2.0;"/><text fill="#000000" font-family="Lucida Sans" font-size="13" font-weight="bold" lengthAdjust="spacingAndGlyphs" textLength="25" x="310.5" y="464.9888">opt</text><polygon fill="#A80036" points="405.5,489.0547,395.5,493.0547,405.5,497.0547,401.5,493.0547" style="stroke: #A80036; stroke-width: 1.0;"/><polygon fill="#A80036" points="610.5,489.0547,620.5,493.0547,610.5,497.0547,614.5,493.0547" style="stroke: #A80036; stroke-width: 1.0;"/><line style="stroke: #A80036; stroke-width: 1.0;" x1="399.5" x2="616.5" y1="493.0547" y2="493.0547"/><text fill="#000000" font-family="Lucida Sans" font-size="13" font-weight="bold" lengthAdjust="spacingAndGlyphs" textLength="18" x="411.5" y="488.1216">10</text><text fill="#000000" font-family="Lucida Sans" font-size="13" lengthAdjust="spacingAndGlyphs" textLength="117" x="433.5" y="488.1216">Instrument Choice</text><polygon fill="#FBFB77" points="627,474.0547,627,499.0547,979,499.0547,979,484.0547,969,474.0547,627,474.0547" style="stroke: #A80036; stroke-width: 1.0;"/><line style="stroke: #A80036; stroke-width: 1.0;" x1="969" x2="969" y1="474.0547" y2="484.0547"/><line style="stroke: #A80036; stroke-width: 1.0;" x1="979" x2="969" y1="484.0547" y2="484.0547"/><text fill="#000000" font-family="Lucida Sans" font-size="13" lengthAdjust="spacingAndGlyphs" textLength="331" x="633" y="491.1216">Payer can change from default payment instrument</text><line style="stroke: #A80036; stroke-width: 1.0;" x1="394.5" x2="436.5" y1="532.3203" y2="532.3203"/><line style="stroke: #A80036; stroke-width: 1.0;" x1="436.5" x2="436.5" y1="532.3203" y2="545.3203"/><line style="stroke: #A80036; stroke-width: 1.0;" x1="395.5" x2="436.5" y1="545.3203" y2="545.3203"/><polygon fill="#A80036" points="405.5,541.3203,395.5,545.3203,405.5,549.3203,401.5,545.3203" style="stroke: #A80036; stroke-width: 1.0;"/><text fill="#000000" font-family="Lucida Sans" font-size="13" font-weight="bold" lengthAdjust="spacingAndGlyphs" textLength="18" x="401.5" y="527.2544">11</text><text fill="#000000" font-family="Lucida Sans" font-size="13" lengthAdjust="spacingAndGlyphs" textLength="56" x="423.5" y="527.2544">Approval</text><polygon fill="#A80036" points="610.5,570.3203,620.5,574.3203,610.5,574.3203" style="stroke: #A80036; stroke-width: 1.0;"/><line style="stroke: #A80036; stroke-width: 1.0;" x1="394.5" x2="621.5" y1="574.3203" y2="574.3203"/><text fill="#000000" font-family="Lucida Sans" font-size="13" font-weight="bold" lengthAdjust="spacingAndGlyphs" textLength="18" x="401.5" y="569.3872">12</text><text fill="#000000" font-family="Lucida Sans" font-size="13" lengthAdjust="spacingAndGlyphs" textLength="117" x="423.5" y="569.3872">Payment Approval</text><polygon fill="#A80036" points="405.5,604.4531,395.5,604.4531,405.5,608.4531" style="stroke: #A80036; stroke-width: 1.0;"/><line style="stroke: #A80036; stroke-width: 1.0;" x1="394.5" x2="621.5" y1="603.4531" y2="603.4531"/><text fill="#000000" font-family="Lucida Sans" font-size="13" font-weight="bold" lengthAdjust="spacingAndGlyphs" textLength="18" x="411.5" y="598.52">13</text><text fill="#000000" font-family="Lucida Sans" font-size="13" lengthAdjust="spacingAndGlyphs" textLength="179" x="433.5" y="598.52">Payment Response Redirect</text><polygon fill="#A80036" points="116.5,628.5859,106.5,632.5859,116.5,632.5859" style="stroke: #A80036; stroke-width: 1.0;"/><line style="stroke: #A80036; stroke-width: 1.0;" x1="105.5" x2="393.5" y1="632.5859" y2="632.5859"/><text fill="#000000" font-family="Lucida Sans" font-size="13" font-weight="bold" lengthAdjust="spacingAndGlyphs" textLength="18" x="122.5" y="627.6528">14</text><text fill="#000000" font-family="Lucida Sans" font-size="13" lengthAdjust="spacingAndGlyphs" textLength="123" x="144.5" y="627.6528">Payment Response</text><polygon fill="#A80036" points="116.5,657.7188,106.5,661.7188,116.5,665.7188,112.5,661.7188" style="stroke: #A80036; stroke-width: 1.0;"/><polygon fill="#A80036" points="610.5,657.7188,620.5,661.7188,610.5,665.7188,614.5,661.7188" style="stroke: #A80036; stroke-width: 1.0;"/><line style="stroke: #A80036; stroke-width: 1.0;" x1="110.5" x2="616.5" y1="661.7188" y2="661.7188"/><text fill="#000000" font-family="Lucida Sans" font-size="13" font-weight="bold" lengthAdjust="spacingAndGlyphs" textLength="18" x="122.5" y="656.7856">15</text><text fill="#000000" font-family="Lucida Sans" font-size="13" lengthAdjust="spacingAndGlyphs" textLength="112" x="144.5" y="656.7856">Execute Payment</text><polygon fill="#A80036" points="382.5,691.8516,392.5,691.8516,382.5,695.8516" style="stroke: #A80036; stroke-width: 1.0;"/><line style="stroke: #A80036; stroke-width: 1.0;" x1="105.5" x2="393.5" y1="690.8516" y2="690.8516"/><text fill="#000000" font-family="Lucida Sans" font-size="13" font-weight="bold" lengthAdjust="spacingAndGlyphs" textLength="18" x="112.5" y="685.9185">16</text><text fill="#000000" font-family="Lucida Sans" font-size="13" lengthAdjust="spacingAndGlyphs" textLength="75" x="134.5" y="685.9185">Result Page</text><text fill="#000000" font-family="Lucida Sans" font-size="11" lengthAdjust="spacingAndGlyphs" textLength="146" x="362.75" y="723.1948">asynchronous notification</text><polygon fill="#A80036" points="405.5,756.7891,395.5,760.7891,405.5,764.7891,401.5,760.7891" style="stroke: #A80036; stroke-width: 1.0;"/><line style="stroke: #A80036; stroke-width: 1.0;" x1="399.5" x2="621.5" y1="760.7891" y2="760.7891"/><text fill="#000000" font-family="Lucida Sans" font-size="13" font-weight="bold" lengthAdjust="spacingAndGlyphs" textLength="18" x="411.5" y="755.856">17</text><text fill="#000000" font-family="Lucida Sans" font-size="13" lengthAdjust="spacingAndGlyphs" textLength="182" x="433.5" y="755.856">Payment Notification (email)</text><rect fill="none" height="46.2656" style="stroke: #000000; stroke-width: 2.0;" width="480.5" x="13" y="775.9219"/><polygon fill="#EEEEEE" points="13,775.9219,83,775.9219,83,782.9219,73,792.9219,13,792.9219,13,775.9219" style="stroke: #000000; stroke-width: 2.0;"/><text fill="#000000" font-family="Lucida Sans" font-size="13" font-weight="bold" lengthAdjust="spacingAndGlyphs" textLength="25" x="28" y="788.9888">opt</text><polygon fill="#A80036" points="382.5,810.0547,392.5,814.0547,382.5,818.0547,386.5,814.0547" style="stroke: #A80036; stroke-width: 1.0;"/><line style="stroke: #A80036; stroke-width: 1.0;" x1="105.5" x2="388.5" y1="814.0547" y2="814.0547"/><text fill="#000000" font-family="Lucida Sans" font-size="13" font-weight="bold" lengthAdjust="spacingAndGlyphs" textLength="18" x="112.5" y="809.1216">18</text><text fill="#000000" font-family="Lucida Sans" font-size="13" lengthAdjust="spacingAndGlyphs" textLength="182" x="134.5" y="809.1216">Payment Notification (email)</text></g></svg>