<?xml version="1.0" encoding="UTF-8" standalone="yes"?><svg xmlns="http://www.w3.org/2000/svg" xmlns:xlink="http://www.w3.org/1999/xlink" height="774px" style="width:652px;height:774px;" version="1.1" viewBox="0 0 652 774" width="652px"><defs><filter height="300%" id="f1" width="300%" x="-1" y="-1"><feGaussianBlur result="blurOut" stdDeviation="2.0"/><feColorMatrix in="blurOut" result="blurOut2" type="matrix" values="0 0 0 0 0 0 0 0 0 0 0 0 0 0 0 0 0 0 .4 0"/><feOffset dx="4.0" dy="4.0" in="blurOut2" result="blurOut3"/><feBlend in="SourceGraphic" in2="blurOut3" mode="normal"/></filter></defs><g><text fill="#000000" font-family="sans-serif" font-size="14" font-weight="bold" lengthAdjust="spacingAndGlyphs" textLength="179" x="236.25" y="22.9951">Taler (Withdraw coins)</text><rect fill="#FFFFFF" filter="url(#f1)" height="75.3984" style="stroke: #000000; stroke-width: 2.0;" width="462" x="13" y="438.7891"/><line style="stroke: #A80036; stroke-width: 1.0; stroke-dasharray: 5.0,5.0;" x1="90" x2="90" y1="116.5938" y2="689.8516"/><line style="stroke: #A80036; stroke-width: 1.0; stroke-dasharray: 5.0,5.0;" x1="423" x2="423" y1="116.5938" y2="689.8516"/><line style="stroke: #A80036; stroke-width: 1.0; stroke-dasharray: 5.0,5.0;" x1="581.5" x2="581.5" y1="116.5938" y2="689.8516"/><text fill="#000000" font-family="sans-serif" font-size="14" lengthAdjust="spacingAndGlyphs" textLength="129" x="23" y="113.292">Customer Browser</text><ellipse cx="90.5" cy="43.2969" fill="#FEFECE" filter="url(#f1)" rx="8" ry="8" style="stroke: #A80036; stroke-width: 2.0;"/><path d="M90.5,51.2969 L90.5,78.2969 M77.5,59.2969 L103.5,59.2969 M90.5,78.2969 L77.5,93.2969 M90.5,78.2969 L103.5,93.2969 " fill="#FEFECE" filter="url(#f1)" style="stroke: #A80036; stroke-width: 2.0;"/><text fill="#000000" font-family="sans-serif" font-size="14" lengthAdjust="spacingAndGlyphs" textLength="129" x="23" y="701.8467">Customer Browser</text><ellipse cx="90.5" cy="715.1484" fill="#FEFECE" filter="url(#f1)" rx="8" ry="8" style="stroke: #A80036; stroke-width: 2.0;"/><path d="M90.5,723.1484 L90.5,750.1484 M77.5,731.1484 L103.5,731.1484 M90.5,750.1484 L77.5,765.1484 M90.5,750.1484 L103.5,765.1484 " fill="#FEFECE" filter="url(#f1)" style="stroke: #A80036; stroke-width: 2.0;"/><rect fill="#FEFECE" filter="url(#f1)" height="30.2969" style="stroke: #A80036; stroke-width: 1.5;" width="79" x="382" y="81.2969"/><text fill="#000000" font-family="sans-serif" font-size="14" lengthAdjust="spacingAndGlyphs" textLength="65" x="389" y="101.292">Bank Site</text><rect fill="#FEFECE" filter="url(#f1)" height="30.2969" style="stroke: #A80036; stroke-width: 1.5;" width="79" x="382" y="688.8516"/><text fill="#000000" font-family="sans-serif" font-size="14" lengthAdjust="spacingAndGlyphs" textLength="65" x="389" y="708.8467">Bank Site</text><rect fill="#FEFECE" filter="url(#f1)" height="30.2969" style="stroke: #A80036; stroke-width: 1.5;" width="120" x="519.5" y="81.2969"/><text fill="#000000" font-family="sans-serif" font-size="14" lengthAdjust="spacingAndGlyphs" textLength="106" x="526.5" y="101.292">Taler Exchange</text><rect fill="#FEFECE" filter="url(#f1)" height="30.2969" style="stroke: #A80036; stroke-width: 1.5;" width="120" x="519.5" y="688.8516"/><text fill="#000000" font-family="sans-serif" font-size="14" lengthAdjust="spacingAndGlyphs" textLength="106" x="526.5" y="708.8467">Taler Exchange</text><polygon fill="#FBFB77" filter="url(#f1)" points="38,131.5938,38,156.5938,475,156.5938,475,141.5938,465,131.5938,38,131.5938" style="stroke: #A80036; stroke-width: 1.0;"/><line style="stroke: #A80036; stroke-width: 1.0;" x1="465" x2="465" y1="131.5938" y2="141.5938"/><line style="stroke: #A80036; stroke-width: 1.0;" x1="475" x2="465" y1="141.5938" y2="141.5938"/><text fill="#000000" font-family="sans-serif" font-size="13" lengthAdjust="spacingAndGlyphs" textLength="41" x="229.5" y="148.6606">HTTPS</text><polygon fill="#FBFB77" filter="url(#f1)" points="28,170.7266,28,195.7266,643,195.7266,643,180.7266,633,170.7266,28,170.7266" style="stroke: #A80036; stroke-width: 1.0;"/><line style="stroke: #A80036; stroke-width: 1.0;" x1="633" x2="633" y1="170.7266" y2="180.7266"/><line style="stroke: #A80036; stroke-width: 1.0;" x1="643" x2="633" y1="180.7266" y2="180.7266"/><text fill="#000000" font-family="sans-serif" font-size="13" lengthAdjust="spacingAndGlyphs" textLength="41" x="308.75" y="187.7935">HTTPS</text><polygon fill="#FBFB77" filter="url(#f1)" points="374,209.8594,374,234.8594,630,234.8594,630,219.8594,620,209.8594,374,209.8594" style="stroke: #A80036; stroke-width: 1.0;"/><line style="stroke: #A80036; stroke-width: 1.0;" x1="620" x2="620" y1="209.8594" y2="219.8594"/><line style="stroke: #A80036; stroke-width: 1.0;" x1="630" x2="620" y1="219.8594" y2="219.8594"/><text fill="#000000" font-family="sans-serif" font-size="13" lengthAdjust="spacingAndGlyphs" textLength="79" x="456.25" y="226.9263">wire transfer</text><polygon fill="#A80036" points="411.5,260.9922,421.5,264.9922,411.5,268.9922,415.5,264.9922" style="stroke: #A80036; stroke-width: 1.0;"/><line style="stroke: #A80036; stroke-width: 1.0;" x1="90.5" x2="417.5" y1="264.9922" y2="264.9922"/><text fill="#000000" font-family="sans-serif" font-size="13" lengthAdjust="spacingAndGlyphs" textLength="124" x="97.5" y="260.0591">user authentication</text><polygon fill="#A80036" points="101.5,290.125,91.5,294.125,101.5,298.125,97.5,294.125" style="stroke: #A80036; stroke-width: 1.0;"/><line style="stroke: #A80036; stroke-width: 1.0;" x1="95.5" x2="422.5" y1="294.125" y2="294.125"/><text fill="#000000" font-family="sans-serif" font-size="13" lengthAdjust="spacingAndGlyphs" textLength="127" x="107.5" y="289.1919">send account portal</text><line style="stroke: #A80036; stroke-width: 1.0;" x1="90.5" x2="132.5" y1="323.3906" y2="323.3906"/><line style="stroke: #A80036; stroke-width: 1.0;" x1="132.5" x2="132.5" y1="323.3906" y2="336.3906"/><line style="stroke: #A80036; stroke-width: 1.0;" x1="91.5" x2="132.5" y1="336.3906" y2="336.3906"/><polygon fill="#A80036" points="101.5,332.3906,91.5,336.3906,101.5,340.3906,97.5,336.3906" style="stroke: #A80036; stroke-width: 1.0;"/><text fill="#000000" font-family="sans-serif" font-size="13" lengthAdjust="spacingAndGlyphs" textLength="319" x="97.5" y="318.3247">initiate withdrawal (specify amount and exchange)</text><polygon fill="#A80036" points="569.5,361.3906,579.5,365.3906,569.5,369.3906,573.5,365.3906" style="stroke: #A80036; stroke-width: 1.0;"/><line style="stroke: #A80036; stroke-width: 1.0;" x1="90.5" x2="575.5" y1="365.3906" y2="365.3906"/><text fill="#000000" font-family="sans-serif" font-size="13" lengthAdjust="spacingAndGlyphs" textLength="348" x="97.5" y="360.4575">request coin denomination keys and wire transfer data</text><polygon fill="#A80036" points="101.5,390.5234,91.5,394.5234,101.5,398.5234,97.5,394.5234" style="stroke: #A80036; stroke-width: 1.0;"/><line style="stroke: #A80036; stroke-width: 1.0;" x1="95.5" x2="580.5" y1="394.5234" y2="394.5234"/><text fill="#000000" font-family="sans-serif" font-size="13" lengthAdjust="spacingAndGlyphs" textLength="330" x="107.5" y="389.5903">send coin denomination keys and wire transfer data</text><polygon fill="#A80036" points="411.5,419.6563,421.5,423.6563,411.5,427.6563,415.5,423.6563" style="stroke: #A80036; stroke-width: 1.0;"/><line style="stroke: #A80036; stroke-width: 1.0;" x1="90.5" x2="417.5" y1="423.6563" y2="423.6563"/><text fill="#000000" font-family="sans-serif" font-size="13" lengthAdjust="spacingAndGlyphs" textLength="121" x="97.5" y="418.7231">execute withdrawal</text><rect fill="none" height="75.3984" style="stroke: #000000; stroke-width: 2.0;" width="462" x="13" y="438.7891"/><polygon fill="#EEEEEE" points="13,438.7891,83,438.7891,83,445.7891,73,455.7891,13,455.7891,13,438.7891" style="stroke: #000000; stroke-width: 2.0;"/><text fill="#000000" font-family="sans-serif" font-size="13" font-weight="bold" lengthAdjust="spacingAndGlyphs" textLength="25" x="28" y="451.856">opt</text><polygon fill="#A80036" points="101.5,472.9219,91.5,476.9219,101.5,480.9219,97.5,476.9219" style="stroke: #A80036; stroke-width: 1.0;"/><line style="stroke: #A80036; stroke-width: 1.0;" x1="95.5" x2="422.5" y1="476.9219" y2="476.9219"/><text fill="#000000" font-family="sans-serif" font-size="13" lengthAdjust="spacingAndGlyphs" textLength="213" x="107.5" y="471.9888">request transaction authorization</text><polygon fill="#A80036" points="411.5,502.0547,421.5,506.0547,411.5,510.0547,415.5,506.0547" style="stroke: #A80036; stroke-width: 1.0;"/><line style="stroke: #A80036; stroke-width: 1.0;" x1="90.5" x2="417.5" y1="506.0547" y2="506.0547"/><text fill="#000000" font-family="sans-serif" font-size="13" lengthAdjust="spacingAndGlyphs" textLength="160" x="97.5" y="501.1216">transaction authorization</text><polygon fill="#A80036" points="101.5,538.1875,91.5,542.1875,101.5,546.1875,97.5,542.1875" style="stroke: #A80036; stroke-width: 1.0;"/><line style="stroke: #A80036; stroke-width: 1.0;" x1="95.5" x2="422.5" y1="542.1875" y2="542.1875"/><text fill="#000000" font-family="sans-serif" font-size="13" lengthAdjust="spacingAndGlyphs" textLength="150" x="107.5" y="537.2544">withdrawal confirmation</text><polygon fill="#A80036" points="569.5,567.3203,579.5,571.3203,569.5,575.3203,573.5,571.3203" style="stroke: #A80036; stroke-width: 1.0;"/><line style="stroke: #A80036; stroke-width: 1.0;" x1="423.5" x2="575.5" y1="571.3203" y2="571.3203"/><text fill="#000000" font-family="sans-serif" font-size="13" lengthAdjust="spacingAndGlyphs" textLength="134" x="430.5" y="566.3872">execute wire transfer</text><polygon fill="#A80036" points="569.5,596.4531,579.5,600.4531,569.5,604.4531,573.5,600.4531" style="stroke: #A80036; stroke-width: 1.0;"/><line style="stroke: #A80036; stroke-width: 1.0;" x1="90.5" x2="575.5" y1="600.4531" y2="600.4531"/><text fill="#000000" font-family="sans-serif" font-size="13" lengthAdjust="spacingAndGlyphs" textLength="108" x="97.5" y="595.52">withdraw request</text><polygon fill="#A80036" points="101.5,625.5859,91.5,629.5859,101.5,633.5859,97.5,629.5859" style="stroke: #A80036; stroke-width: 1.0;"/><line style="stroke: #A80036; stroke-width: 1.0;" x1="95.5" x2="580.5" y1="629.5859" y2="629.5859"/><text fill="#000000" font-family="sans-serif" font-size="13" lengthAdjust="spacingAndGlyphs" textLength="129" x="107.5" y="624.6528">signed blinded coins</text><line style="stroke: #A80036; stroke-width: 1.0;" x1="90.5" x2="132.5" y1="658.8516" y2="658.8516"/><line style="stroke: #A80036; stroke-width: 1.0;" x1="132.5" x2="132.5" y1="658.8516" y2="671.8516"/><line style="stroke: #A80036; stroke-width: 1.0;" x1="91.5" x2="132.5" y1="671.8516" y2="671.8516"/><polygon fill="#A80036" points="101.5,667.8516,91.5,671.8516,101.5,675.8516,97.5,671.8516" style="stroke: #A80036; stroke-width: 1.0;"/><text fill="#000000" font-family="sans-serif" font-size="13" lengthAdjust="spacingAndGlyphs" textLength="83" x="97.5" y="653.7856">unblind coins</text></g></svg>