<?xml version="1.0" encoding="UTF-8" standalone="yes"?><svg xmlns="http://www.w3.org/2000/svg" xmlns:xlink="http://www.w3.org/1999/xlink" height="866px" style="width:753px;height:866px;" version="1.1" viewBox="0 0 753 866" width="753px"><defs><filter height="300%" id="f1" width="300%" x="-1" y="-1"><feGaussianBlur result="blurOut" stdDeviation="2.0"/><feColorMatrix in="blurOut" result="blurOut2" type="matrix" values="0 0 0 0 0 0 0 0 0 0 0 0 0 0 0 0 0 0 .4 0"/><feOffset dx="4.0" dy="4.0" in="blurOut2" result="blurOut3"/><feBlend in="SourceGraphic" in2="blurOut3" mode="normal"/></filter></defs><g><text fill="#000000" font-family="sans-serif" font-size="14" font-weight="bold" lengthAdjust="spacingAndGlyphs" textLength="125" x="313.5" y="22.9951">Taler (Payment)</text><rect fill="#FFFFFF" filter="url(#f1)" height="59.2656" style="stroke: #000000; stroke-width: 2.0;" width="509" x="13" y="313.2578"/><rect fill="#FFFFFF" filter="url(#f1)" height="59.2656" style="stroke: #000000; stroke-width: 2.0;" width="213" x="13" y="429.6563"/><line style="stroke: #A80036; stroke-width: 1.0; stroke-dasharray: 5.0,5.0;" x1="112" x2="112" y1="116.5938" y2="782.1172"/><line style="stroke: #A80036; stroke-width: 1.0; stroke-dasharray: 5.0,5.0;" x1="516.5" x2="516.5" y1="116.5938" y2="782.1172"/><line style="stroke: #A80036; stroke-width: 1.0; stroke-dasharray: 5.0,5.0;" x1="673.5" x2="673.5" y1="116.5938" y2="782.1172"/><text fill="#000000" font-family="sans-serif" font-size="14" lengthAdjust="spacingAndGlyphs" textLength="172" x="23" y="113.292">Payer (Shopper) Browser</text><ellipse cx="112" cy="43.2969" fill="#FEFECE" filter="url(#f1)" rx="8" ry="8" style="stroke: #A80036; stroke-width: 2.0;"/><path d="M112,51.2969 L112,78.2969 M99,59.2969 L125,59.2969 M112,78.2969 L99,93.2969 M112,78.2969 L125,93.2969 " fill="#FEFECE" filter="url(#f1)" style="stroke: #A80036; stroke-width: 2.0;"/><text fill="#000000" font-family="sans-serif" font-size="14" lengthAdjust="spacingAndGlyphs" textLength="172" x="23" y="794.1123">Payer (Shopper) Browser</text><ellipse cx="112" cy="807.4141" fill="#FEFECE" filter="url(#f1)" rx="8" ry="8" style="stroke: #A80036; stroke-width: 2.0;"/><path d="M112,815.4141 L112,842.4141 M99,823.4141 L125,823.4141 M112,842.4141 L99,857.4141 M112,842.4141 L125,857.4141 " fill="#FEFECE" filter="url(#f1)" style="stroke: #A80036; stroke-width: 2.0;"/><rect fill="#FEFECE" filter="url(#f1)" height="30.2969" style="stroke: #A80036; stroke-width: 1.5;" width="165" x="432.5" y="81.2969"/><text fill="#000000" font-family="sans-serif" font-size="14" lengthAdjust="spacingAndGlyphs" textLength="151" x="439.5" y="101.292">Payee (Merchant) Site</text><rect fill="#FEFECE" filter="url(#f1)" height="30.2969" style="stroke: #A80036; stroke-width: 1.5;" width="165" x="432.5" y="781.1172"/><text fill="#000000" font-family="sans-serif" font-size="14" lengthAdjust="spacingAndGlyphs" textLength="151" x="439.5" y="801.1123">Payee (Merchant) Site</text><rect fill="#FEFECE" filter="url(#f1)" height="30.2969" style="stroke: #A80036; stroke-width: 1.5;" width="120" x="611.5" y="81.2969"/><text fill="#000000" font-family="sans-serif" font-size="14" lengthAdjust="spacingAndGlyphs" textLength="106" x="618.5" y="101.292">Taler Exchange</text><rect fill="#FEFECE" filter="url(#f1)" height="30.2969" style="stroke: #A80036; stroke-width: 1.5;" width="120" x="611.5" y="781.1172"/><text fill="#000000" font-family="sans-serif" font-size="14" lengthAdjust="spacingAndGlyphs" textLength="106" x="618.5" y="801.1123">Taler Exchange</text><polygon fill="#FBFB77" filter="url(#f1)" points="27,131.5938,27,156.5938,600,156.5938,600,141.5938,590,131.5938,27,131.5938" style="stroke: #A80036; stroke-width: 1.0;"/><line style="stroke: #A80036; stroke-width: 1.0;" x1="590" x2="590" y1="131.5938" y2="141.5938"/><line style="stroke: #A80036; stroke-width: 1.0;" x1="600" x2="590" y1="141.5938" y2="141.5938"/><text fill="#000000" font-family="sans-serif" font-size="13" lengthAdjust="spacingAndGlyphs" textLength="65" x="274.75" y="148.6606">Tor/HTTPS</text><polygon fill="#FBFB77" filter="url(#f1)" points="446,170.7266,446,195.7266,744,195.7266,744,180.7266,734,170.7266,446,170.7266" style="stroke: #A80036; stroke-width: 1.0;"/><line style="stroke: #A80036; stroke-width: 1.0;" x1="734" x2="734" y1="170.7266" y2="180.7266"/><line style="stroke: #A80036; stroke-width: 1.0;" x1="744" x2="734" y1="180.7266" y2="180.7266"/><text fill="#000000" font-family="sans-serif" font-size="13" lengthAdjust="spacingAndGlyphs" textLength="77" x="550" y="187.7935">HTTP/HTTPS</text><rect fill="#EEEEEE" filter="url(#f1)" height="3" style="stroke: #EEEEEE; stroke-width: 1.0;" width="746" x="3" y="225.4258"/><line style="stroke: #000000; stroke-width: 1.0;" x1="3" x2="749" y1="225.4258" y2="225.4258"/><line style="stroke: #000000; stroke-width: 1.0;" x1="3" x2="749" y1="228.4258" y2="228.4258"/><rect fill="#EEEEEE" filter="url(#f1)" height="23.1328" style="stroke: #000000; stroke-width: 2.0;" width="123" x="314.5" y="214.8594"/><text fill="#000000" font-family="sans-serif" font-size="13" font-weight="bold" lengthAdjust="spacingAndGlyphs" textLength="104" x="320.5" y="230.9263">Request Offer</text><polygon fill="#A80036" points="505,264.9922,515,268.9922,505,272.9922,509,268.9922" style="stroke: #A80036; stroke-width: 1.0;"/><line style="stroke: #A80036; stroke-width: 1.0;" x1="112" x2="511" y1="268.9922" y2="268.9922"/><text fill="#000000" font-family="sans-serif" font-size="13" lengthAdjust="spacingAndGlyphs" textLength="259" x="119" y="264.0591">Choose goods by navigating to offer URL</text><polygon fill="#A80036" points="123,294.125,113,298.125,123,302.125,119,298.125" style="stroke: #A80036; stroke-width: 1.0;"/><line style="stroke: #A80036; stroke-width: 1.0;" x1="117" x2="516" y1="298.125" y2="298.125"/><text fill="#000000" font-family="sans-serif" font-size="13" lengthAdjust="spacingAndGlyphs" textLength="237" x="129" y="293.1919">Send signed digital contract proposal</text><rect fill="none" height="59.2656" style="stroke: #000000; stroke-width: 2.0;" width="509" x="13" y="313.2578"/><polygon fill="#EEEEEE" points="13,313.2578,83,313.2578,83,320.2578,73,330.2578,13,330.2578,13,313.2578" style="stroke: #000000; stroke-width: 2.0;"/><text fill="#000000" font-family="sans-serif" font-size="13" font-weight="bold" lengthAdjust="spacingAndGlyphs" textLength="25" x="28" y="326.3247">opt</text><line style="stroke: #A80036; stroke-width: 1.0;" x1="112" x2="154" y1="351.5234" y2="351.5234"/><line style="stroke: #A80036; stroke-width: 1.0;" x1="154" x2="154" y1="351.5234" y2="364.5234"/><line style="stroke: #A80036; stroke-width: 1.0;" x1="113" x2="154" y1="364.5234" y2="364.5234"/><polygon fill="#A80036" points="123,360.5234,113,364.5234,123,368.5234,119,364.5234" style="stroke: #A80036; stroke-width: 1.0;"/><text fill="#000000" font-family="sans-serif" font-size="13" lengthAdjust="spacingAndGlyphs" textLength="391" x="119" y="346.4575">Select Taler payment method (skippable with auto-detection)</text><rect fill="#EEEEEE" filter="url(#f1)" height="3" style="stroke: #EEEEEE; stroke-width: 1.0;" width="746" x="3" y="400.0898"/><line style="stroke: #000000; stroke-width: 1.0;" x1="3" x2="749" y1="400.0898" y2="400.0898"/><line style="stroke: #000000; stroke-width: 1.0;" x1="3" x2="749" y1="403.0898" y2="403.0898"/><rect fill="#EEEEEE" filter="url(#f1)" height="23.1328" style="stroke: #000000; stroke-width: 2.0;" width="147" x="302.5" y="389.5234"/><text fill="#000000" font-family="sans-serif" font-size="13" font-weight="bold" lengthAdjust="spacingAndGlyphs" textLength="128" x="308.5" y="405.5903">Execute Payment</text><rect fill="none" height="59.2656" style="stroke: #000000; stroke-width: 2.0;" width="213" x="13" y="429.6563"/><polygon fill="#EEEEEE" points="13,429.6563,83,429.6563,83,436.6563,73,446.6563,13,446.6563,13,429.6563" style="stroke: #000000; stroke-width: 2.0;"/><text fill="#000000" font-family="sans-serif" font-size="13" font-weight="bold" lengthAdjust="spacingAndGlyphs" textLength="25" x="28" y="442.7231">opt</text><line style="stroke: #A80036; stroke-width: 1.0;" x1="112" x2="154" y1="467.9219" y2="467.9219"/><line style="stroke: #A80036; stroke-width: 1.0;" x1="154" x2="154" y1="467.9219" y2="480.9219"/><line style="stroke: #A80036; stroke-width: 1.0;" x1="113" x2="154" y1="480.9219" y2="480.9219"/><polygon fill="#A80036" points="123,476.9219,113,480.9219,123,484.9219,119,480.9219" style="stroke: #A80036; stroke-width: 1.0;"/><text fill="#000000" font-family="sans-serif" font-size="13" lengthAdjust="spacingAndGlyphs" textLength="95" x="119" y="462.856">Affirm contract</text><polygon fill="#A80036" points="505,512.9219,515,516.9219,505,520.9219,509,516.9219" style="stroke: #A80036; stroke-width: 1.0;"/><line style="stroke: #A80036; stroke-width: 1.0;" x1="112" x2="511" y1="516.9219" y2="516.9219"/><text fill="#000000" font-family="sans-serif" font-size="13" lengthAdjust="spacingAndGlyphs" textLength="169" x="119" y="511.9888">Navigate to fulfillment URL</text><polygon fill="#A80036" points="123,542.0547,113,546.0547,123,550.0547,119,546.0547" style="stroke: #A80036; stroke-width: 1.0;"/><line style="stroke: #A80036; stroke-width: 1.0;" x1="117" x2="516" y1="546.0547" y2="546.0547"/><text fill="#000000" font-family="sans-serif" font-size="13" lengthAdjust="spacingAndGlyphs" textLength="349" x="129" y="541.1216">Send hash of digital contract and payment information</text><polygon fill="#A80036" points="505,571.1875,515,575.1875,505,579.1875,509,575.1875" style="stroke: #A80036; stroke-width: 1.0;"/><line style="stroke: #A80036; stroke-width: 1.0;" x1="112" x2="511" y1="575.1875" y2="575.1875"/><text fill="#000000" font-family="sans-serif" font-size="13" lengthAdjust="spacingAndGlyphs" textLength="94" x="119" y="570.2544">Send payment</text><polygon fill="#A80036" points="661.5,600.3203,671.5,604.3203,661.5,608.3203,665.5,604.3203" style="stroke: #A80036; stroke-width: 1.0;"/><line style="stroke: #A80036; stroke-width: 1.0;" x1="517" x2="667.5" y1="604.3203" y2="604.3203"/><text fill="#000000" font-family="sans-serif" font-size="13" lengthAdjust="spacingAndGlyphs" textLength="111" x="524" y="599.3872">Forward payment</text><polygon fill="#A80036" points="528,629.4531,518,633.4531,528,637.4531,524,633.4531" style="stroke: #A80036; stroke-width: 1.0;"/><line style="stroke: #A80036; stroke-width: 1.0;" x1="522" x2="672.5" y1="633.4531" y2="633.4531"/><text fill="#000000" font-family="sans-serif" font-size="13" lengthAdjust="spacingAndGlyphs" textLength="111" x="534" y="628.52">Confirm payment</text><polygon fill="#A80036" points="123,658.5859,113,662.5859,123,666.5859,119,662.5859" style="stroke: #A80036; stroke-width: 1.0;"/><line style="stroke: #A80036; stroke-width: 1.0;" x1="117" x2="516" y1="662.5859" y2="662.5859"/><text fill="#000000" font-family="sans-serif" font-size="13" lengthAdjust="spacingAndGlyphs" textLength="111" x="129" y="657.6528">Confirm payment</text><rect fill="#EEEEEE" filter="url(#f1)" height="3" style="stroke: #EEEEEE; stroke-width: 1.0;" width="746" x="3" y="691.2852"/><line style="stroke: #000000; stroke-width: 1.0;" x1="3" x2="749" y1="691.2852" y2="691.2852"/><line style="stroke: #000000; stroke-width: 1.0;" x1="3" x2="749" y1="694.2852" y2="694.2852"/><rect fill="#EEEEEE" filter="url(#f1)" height="23.1328" style="stroke: #000000; stroke-width: 2.0;" width="93" x="329.5" y="680.7188"/><text fill="#000000" font-family="sans-serif" font-size="13" font-weight="bold" lengthAdjust="spacingAndGlyphs" textLength="74" x="335.5" y="696.7856">Fulfilment</text><polygon fill="#A80036" points="505,730.8516,515,734.8516,505,738.8516,509,734.8516" style="stroke: #A80036; stroke-width: 1.0;"/><line style="stroke: #A80036; stroke-width: 1.0;" x1="112" x2="511" y1="734.8516" y2="734.8516"/><text fill="#000000" font-family="sans-serif" font-size="13" lengthAdjust="spacingAndGlyphs" textLength="212" x="119" y="729.9185">Reload fulfillment URL for delivery</text><polygon fill="#A80036" points="123,759.9844,113,763.9844,123,767.9844,119,763.9844" style="stroke: #A80036; stroke-width: 1.0;"/><line style="stroke: #A80036; stroke-width: 1.0;" x1="117" x2="516" y1="763.9844" y2="763.9844"/><text fill="#000000" font-family="sans-serif" font-size="13" lengthAdjust="spacingAndGlyphs" textLength="160" x="129" y="759.0513">Provide product resource</text></g></svg>