<svg height='24px' width='24px'  fill="#000000" xmlns="http://www.w3.org/2000/svg" xmlns:xlink="http://www.w3.org/1999/xlink" viewBox="0 0 100 100" version="1.1" x="0px" y="0px"><title>ic-158</title><desc>Created with Sketch.</desc><g stroke="none" stroke-width="1" fill="none" fill-rule="evenodd"><path d="M84.0452308,50.7606153 L20.0266763,28.6438622 C22.9345628,23.3928613 26.6504675,18.8300984 31.7277606,15.7271451 C41.4230006,9.80065135 53.3346593,8.78103952 64.4079379,12.9261538 C76.9973525,17.6379369 84.8189696,29.0526874 84.8189696,42.7154859 C84.8189696,45.6635366 84.5339595,48.3204097 84.0452308,50.7606153 L84.0452308,50.7606153 Z M86.4115001,58.3920177 C88.0765075,53.9998437 89.226342,48.9243337 89.226342,42.7154859 C89.226342,27.1654251 80.307779,14.1673351 65.9514976,8.79378467 C53.6000811,4.17121759 40.2888368,5.32416327 29.4310298,11.9614441 C16.0375145,20.1477506 11.321626,36.3409511 7.16008691,50.6292423 C6.48918688,52.9321925 5.85550466,55.1086715 5.19341937,57.2273073 C4.82515891,58.2920173 4.9887214,59.4724141 5.6331772,60.3979079 C6.29232424,61.3420292 7.37164079,61.9057569 8.52245472,61.9057569 L12.5312049,61.9057569 C16.0149879,61.9057569 18.8494182,64.7430229 18.8494182,68.2302915 L18.8494182,79.54112 C18.8494182,85.3636917 23.4693239,89.5901788 29.8355287,89.5901788 L33.6405602,89.5901788 C36.0695122,89.5901788 38.0449945,91.5686179 38.0449945,94 L42.452367,94 C42.452367,89.1352751 38.4994435,85.1783969 33.6405602,85.1783969 L29.8355287,85.1783969 C26.5613406,85.1783969 23.2567907,83.4352528 23.2567907,79.54112 L23.2567907,72.58423 C24.4595136,72.7508974 25.6308953,72.844035 26.7660386,72.844035 C32.1567448,72.844035 36.7805683,70.9616747 40.7854007,67.1626402 L37.7531285,63.9606669 C33.7042223,67.8018584 29.1744228,69.110687 23.2518936,68.1273499 C23.1950874,62.2547779 18.4106397,57.493975 12.5312049,57.493975 L9.72419828,57.493975 C10.2824655,55.6714188 12.453831,48.4635475 12.453831,48.4635475 L78.403794,64.8067487 C77.7436676,65.9508708 77.0698293,67.0734242 76.3989293,68.1881344 C72.684004,74.3538448 68.8437134,80.7293599 68.8437134,89.6627281 L68.8437134,94 L73.2510859,94 L73.2510859,89.6627281 C73.2510859,82.7744659 75.8151973,77.7881719 79.0129909,72.4038372 L88.0197014,75.9175764 L95,61.3939902 L86.4115001,58.3920177 Z" fill="#000000"></path></g></svg>
